<svg width="1079" height="400" viewBox="0 0 1079 400" fill="none" xmlns="http://www.w3.org/2000/svg">
<path fill-rule="evenodd" clip-rule="evenodd" d="M253.209 69.8884C244.674 69.8884 237.325 66.7988 231.264 60.801C225.219 54.8151 222.115 47.4686 222.115 38.9605C222.115 30.3871 225.213 23.0882 231.256 17.0131C237.289 10.947 244.647 7.86041 253.209 7.86041C261.714 7.86041 269.06 10.9589 275.094 16.9418C281.199 22.9901 284.25 30.3633 284.25 38.9605C284.25 47.4686 281.139 54.8181 275.094 60.801C269.055 66.778 261.714 69.8884 253.209 69.8884ZM1029.59 195.792C1028.72 222.626 1006.36 244.473 979.325 244.473C951.763 244.473 929.037 221.747 929.037 194.182V150.923V143.891V94.6579H879.804V194.182C879.804 248.923 924.587 293.706 979.325 293.706C997.628 293.706 1014.82 288.691 1029.59 279.981V298.12V300.553C1029.59 314.441 1024.67 326.196 1014.88 336.038C1005.05 345.916 993.231 350.791 979.298 350.791C965.422 350.791 953.626 345.841 943.819 336.032C935.406 327.616 930.579 317.798 929.367 306.417H880.015C880.645 317.67 883.116 328.603 887.587 339.042C892.688 350.942 899.776 361.592 908.935 370.745C918.096 379.909 928.743 387.054 940.629 392.205C952.919 397.528 965.915 400 979.298 400C992.705 400 1005.71 397.534 1018.02 392.205C1029.9 387.057 1040.47 379.933 1049.65 370.804C1058.85 361.663 1065.97 351.091 1071.07 339.154C1076.3 326.877 1078.8 313.901 1078.8 300.553H1078.85V194.182V108.249V94.6579H1029.62V108.249H1029.59V195.792ZM174.429 92.6587H199.047V194.292C199.047 249.255 154.49 293.816 99.5249 293.816C44.5579 293.816 0 249.255 0 194.292C0 139.325 44.5579 94.7679 99.5249 94.7679C118.44 94.7679 136.119 100.044 151.181 109.205C154.538 99.5982 163.714 92.6587 174.429 92.6587ZM99.5249 144.001C127.296 144.001 149.814 166.519 149.814 194.292C149.814 222.065 127.296 244.58 99.5249 244.58C71.7501 244.58 49.2356 222.065 49.2356 194.292C49.2356 166.519 71.7501 144.001 99.5249 144.001ZM755.101 296.166H804.331V144.845H853.115V95.6116H804.331V85.8113C804.331 75.6812 807.896 67.1315 815.076 59.9841C822.25 52.8336 830.877 49.2391 841.016 49.2391H853.115V-1.11594e-05H841.016C829.472 -1.11594e-05 818.219 2.14779 807.593 6.67809C797.308 11.0688 788.15 17.2033 780.274 25.138C772.405 33.0697 766.259 42.2194 761.832 52.489C757.26 63.1033 755.101 74.2464 755.101 85.8113V293.988V296.166ZM631.19 296.166H680.421V144.845H729.202V95.6116H680.421V85.8113C680.421 75.6812 683.982 67.1315 691.16 59.9841C698.34 52.8336 706.961 49.2391 717.103 49.2391H729.202V-1.11594e-05H717.103C705.556 -1.11594e-05 694.308 2.14779 683.679 6.67809C673.395 11.0658 664.236 17.2033 656.361 25.138C648.492 33.0697 642.348 42.2194 637.922 52.489C633.35 63.1033 631.187 74.2464 631.187 85.8113V293.988H631.19V296.166ZM553.537 296.166H602.767V194.491C602.767 181.09 600.191 168.176 594.918 155.866C589.791 143.924 582.628 133.283 573.446 124.094C564.276 114.924 553.706 107.788 541.784 102.682C529.507 97.4207 516.569 94.9402 503.216 94.9402C489.839 94.9402 476.851 97.4028 464.541 102.682C452.613 107.794 441.975 114.906 432.814 124.094C423.67 133.271 416.508 143.858 411.353 155.75C406.015 168.067 403.552 181.075 403.552 194.491C403.552 207.88 406.027 220.888 411.353 233.178C416.508 245.064 423.637 255.675 432.754 264.878C441.856 274.073 452.539 281.161 464.431 286.244C476.768 291.525 489.815 293.988 503.216 293.988C521.331 293.988 538.154 289.568 553.534 280.412V293.988H553.537V296.166ZM305.597 296.166H354.827V180.745C354.827 170.615 358.389 162.072 365.566 154.918C372.749 147.765 381.37 144.173 391.512 144.173H393.945V94.9402H391.512C379.962 94.9402 368.712 97.085 358.089 101.618C347.802 106.009 338.646 112.143 330.774 120.078C322.898 128.013 316.758 137.154 312.332 147.426C307.757 158.041 305.591 169.184 305.591 180.745V293.988H305.597V296.166ZM228.65 296.166H277.88V94.7708H228.65V293.988V296.166ZM191.472 339.018C195.916 328.591 198.397 317.661 199.047 306.429H149.585C148.332 317.73 143.519 327.506 135.175 335.899C125.333 345.794 113.481 350.678 99.5216 350.678C85.6161 350.678 73.796 345.72 63.9732 335.893C55.5926 327.512 50.764 317.745 49.5119 306.429H0.0522916C0.704358 317.629 3.17269 328.513 7.62961 338.905C12.738 350.832 19.8445 361.503 29.0177 370.673C38.1965 379.853 48.8654 387.015 60.7749 392.178C73.0893 397.508 86.1116 399.988 99.5216 399.988C112.954 399.988 125.986 397.517 138.324 392.178C150.23 387.018 160.818 379.88 170.015 370.733C179.233 361.574 186.371 350.981 191.472 339.018ZM503.216 244.752C517.11 244.752 528.957 239.856 538.775 230.145C548.166 220.238 553.367 208.634 553.367 194.939C553.367 180.968 548.35 168.988 538.823 158.887C528.966 149.078 517.125 144.173 503.216 144.173C489.301 144.173 477.413 149.075 467.55 158.887C457.667 168.72 452.786 180.549 452.786 194.491C452.786 208.373 457.744 220.172 467.553 229.985C477.407 239.841 489.284 244.752 503.216 244.752Z" fill="white"/>
</svg>
