<svg width="110" height="155" viewBox="0 0 110 155" fill="none" xmlns="http://www.w3.org/2000/svg">
<path d="M48.594 6.88034C46.5488 7.04345 45.5878 9.20204 44.9397 10.8709C41.6853 19.6508 38.798 28.5628 35.7789 37.4257C31.048 51.4261 26.5491 65.5028 22.0702 79.5852C17.8576 92.6665 13.5456 105.716 9.31166 118.79C8.68794 120.506 8.49744 122.929 10.2478 124.055C12.7716 125.488 15.6056 126.28 18.2948 127.346C28.8887 131.067 39.5066 134.728 50.2022 138.147C52.228 138.813 54.9739 138.197 55.9043 136.098C57.9198 131.704 59.3068 127.051 60.9712 122.518C67.1235 104.843 73.345 87.181 79.4561 69.4985C84.1306 56.1796 88.8704 42.8805 93.3875 29.5067C93.8798 27.6167 94.8445 25.6455 94.3946 23.6588C93.6081 21.726 91.3375 21.1586 89.6031 20.3939C81.7929 17.6312 73.9489 14.9716 66.1444 12.1879C60.7589 10.3767 55.429 8.33619 49.9008 6.99513C49.4711 6.90897 49.0319 6.8738 48.594 6.88034Z" fill="#316C58"/>
<path d="M94.4964 60.7441C93.488 60.9271 93.0238 62.0398 92.588 62.8505C92.0127 64.1232 91.6855 65.724 92.3589 67.0173C92.8133 67.7052 93.8403 67.506 94.2139 66.8437C95.22 65.2959 95.4883 63.3377 95.3237 61.5275C95.2636 61.1142 94.9486 60.7155 94.4964 60.7441Z" fill="#DDFA88"/>
<path d="M102.904 37.4029C101.638 37.7277 101.273 39.1909 100.772 40.2273C99.3413 43.9193 97.9084 47.6232 96.8021 51.4276C96.5827 52.6097 96.3489 53.9144 96.7963 55.065C97.0177 55.6447 97.7871 55.5878 98.0437 55.0625C99.3866 52.9082 100.173 50.4607 101.086 48.1051C102.134 45.0983 103.22 42.0795 103.83 38.948C103.966 38.3041 103.677 37.4071 102.904 37.4029Z" fill="#DDFA88"/>
<path d="M103.049 22.1771C102.227 22.4548 102.545 23.623 102.341 24.2925C101.585 28.9555 99.9393 33.4266 98.5331 37.9119C92.5117 55.4778 85.6041 72.7459 79.6122 90.3325C74.0991 106.32 68.2162 122.176 62.5512 138.109C61.7671 140.379 60.5735 142.421 59.4919 144.539C58.831 146.268 60.0739 147.92 60.6458 149.478C59.5179 148.721 58.4638 147.857 57.5221 146.926C55.7565 146.596 53.9164 146.883 52.1375 146.554C48.6781 146.183 45.3891 145.122 42.1672 143.863C31.0608 140.005 19.9031 136.3 8.99307 131.907C8.2978 131.731 7.60897 131.224 6.87854 131.344C6.2133 131.989 7.10776 132.857 7.44066 133.458C9.51713 136.443 13.2333 137.41 16.4159 138.732C27.0021 142.714 37.7534 146.237 48.4724 149.84C52.2984 151.033 56.1507 152.424 60.1838 152.647C61.9141 152.48 63.6641 151.583 64.3928 149.927C66.9141 145.036 68.3952 139.699 70.2618 134.543C74.1922 122.753 78.415 111.064 82.7128 99.4037C86.2492 89.6749 89.8122 79.9516 93.0726 70.1265C93.4638 68.9388 91.8616 68.5862 91.2864 67.8598C90.3203 66.5233 90.8455 64.7053 91.3256 63.2654C91.954 61.7132 92.9954 59.7135 94.9339 59.7527C95.5902 59.6568 96.2246 60.63 96.7691 59.9124C97.1505 59.2713 97.5354 58.2566 97.0307 57.5985C96.2327 57.0953 95.1255 56.6685 95.18 55.5186C95.1571 52.9531 96.2671 50.5964 96.9679 48.1785C98.2059 44.6951 99.333 41.1403 101.03 37.8476C101.546 36.8374 102.891 36.016 103.883 36.9194C104.827 37.6056 105.033 36.1281 105.33 35.5115C106.156 32.7858 106.785 29.8967 106.503 27.037C106.215 25.1322 104.814 23.6253 103.504 22.3162C103.372 22.2239 103.212 22.1611 103.049 22.1771Z" fill="#267F4C"/>
<path d="M46.5803 2.12932C44.5741 2.04821 42.8875 3.50755 42.125 5.2733C40.2399 9.68104 38.9954 14.3263 37.3781 18.8349C31.0896 37.0967 24.766 55.3518 19.1015 73.8194C14.5481 88.3944 8.80978 102.573 4.20371 117.141C3.54888 119.673 2.46837 122.337 3.09114 124.98C3.94196 127.288 6.20182 128.697 8.35349 129.647C12.5431 131.516 16.9166 132.877 21.2069 134.497C31.4701 138.057 41.7711 141.543 52.2418 144.447C54.4059 144.696 57.0853 144.389 58.3208 142.339C60.0784 139.358 61.0351 135.988 62.2962 132.783C65.0212 124.919 67.9104 117.123 70.78 109.308C74.8124 97.5942 78.7427 85.8448 83.1017 74.2483C87.1094 63.0658 91.2025 51.9139 95.1677 40.7163C96.9834 35.2672 99.0099 29.8438 100.052 24.1792C100.314 22.7387 100.275 21.1647 99.3157 19.9714C97.9933 17.8881 95.3512 17.5402 93.2449 16.6681C83.279 13.2947 73.3468 9.82625 63.3624 6.51143C58.3872 4.98069 53.439 3.27832 48.3276 2.25776C47.7497 2.1707 47.1652 2.1165 46.5803 2.12932ZM48.519 5.44909C51.4198 5.7364 54.2311 6.87353 57.0333 7.70977C67.0851 11.0545 77.0223 14.7819 87.1238 18.0063C89.8775 19.0434 93.0923 19.6629 95.0096 22.1038C96.0699 23.112 96.0649 24.6701 95.701 25.9859C94.46 31.1744 92.3985 36.0954 90.7004 41.1534C87.0099 51.5823 83.0075 61.9052 79.5983 72.4347C73.259 91.23 66.6876 109.944 60.2124 128.692C59.0552 131.681 58.2269 134.929 56.371 137.563C55.4656 138.775 54.1552 139.933 52.5202 139.709C51.1561 139.729 49.7771 139.736 48.5193 139.104C36.9045 135.007 25.2634 130.958 13.6564 126.837C11.7155 125.996 9.46688 125.443 7.99081 123.837C6.87454 122.182 7.80789 120.11 8.19774 118.386C11.3871 107.801 15.0499 97.3104 18.4695 86.7758C21.7198 77.119 24.7351 67.3864 27.839 57.6848C32.7756 42.6265 37.8482 27.6125 42.9121 12.5969C43.8493 10.2496 44.5564 7.43235 46.7478 5.88353C47.2753 5.55524 47.9045 5.43768 48.519 5.44909Z" fill="#267F4C"/>
<g opacity="0.5" style="mix-blend-mode:hard-light">
<path d="M91.5478 19.8075C91.0039 19.7933 90.8344 20.4656 91.3238 21.6367C91.5682 22.2217 91.7684 23.1385 91.7684 23.6739C91.7684 24.6982 91.1334 26.5652 73.4881 77.4242C67.3964 94.982 60.4486 115.028 58.0483 121.972C55.648 128.915 53.5017 134.951 53.2789 135.385C52.8041 136.311 52.1524 136.699 49.9779 137.353L48.3816 137.832L49.2624 138.293C49.7468 138.547 50.6488 138.849 51.2669 138.965C51.885 139.081 52.7258 139.35 53.1357 139.562C54.3145 140.174 54.926 139.537 55.9835 136.595C56.4934 135.176 57.3055 133.167 57.7881 132.129C58.2708 131.092 59.4414 128.284 60.3894 125.889C61.3374 123.495 62.6288 120.296 63.2589 118.779C64.9329 114.751 69.0117 102.634 71.6116 93.9662C72.8564 89.8162 75.2335 82.4374 76.8941 77.5691C78.5546 72.7008 81.2574 64.6692 82.9005 59.7211C84.5436 54.773 86.7462 48.407 87.7953 45.5741C88.8444 42.7413 90.2488 38.6275 90.9156 36.4324C91.5825 34.2374 92.4254 31.6579 92.7891 30.7002C93.1529 29.7425 93.8858 27.6169 94.4173 25.9767C95.4357 22.8342 95.4109 22.3368 94.2065 21.7035C93.9029 21.5439 93.3016 21.0541 92.8699 20.6152C92.3354 20.0717 91.8741 19.816 91.5478 19.8075ZM102.992 21.9284C102.81 21.9889 102.509 22.9426 102.323 24.0476C101.937 26.3367 101.248 29.0978 100.482 31.4254C100.193 32.3033 99.5948 34.1971 99.1535 35.6337C98.7123 37.0702 98.2453 38.4414 98.1154 38.6809C97.9855 38.9203 97.4954 40.2916 97.0263 41.7281C96.5571 43.1647 95.1282 47.1477 93.8515 50.5794C92.5748 54.0112 90.8591 58.6474 90.0386 60.8821C89.2181 63.1167 88.2945 65.5982 87.9862 66.3963C85.93 71.7182 84.4215 75.9294 79.8771 89.0328C76.9597 97.4449 74.6547 103.964 73.2071 107.896C72.3845 110.131 71.057 113.853 70.2572 116.167C69.4574 118.482 68.6814 120.637 68.5325 120.956C68.3836 121.275 68.01 122.255 67.7022 123.133C67.3945 124.01 66.8666 125.447 66.5289 126.325C66.1913 127.203 65.5124 129.096 65.0206 130.533C64.5289 131.969 63.9998 133.388 63.8447 133.685C63.6897 133.982 63.3115 135.133 63.0039 136.243C62.5089 138.029 60.9882 141.355 59.7092 143.448C59.4654 143.847 59.1382 144.532 58.9823 144.971C58.7995 145.486 58.4896 145.769 58.1108 145.769C57.7876 145.769 57.5233 145.906 57.5233 146.073C57.5233 146.899 60.9548 152.172 61.9419 152.863C62.4155 153.195 62.3474 153.286 61.303 153.649L63.162 153.583L65.5435 150.93L72.4112 131.697C71.8803 133.013 71.341 134.409 70.9841 135.466C69.9202 138.619 67.0652 145.541 66.8979 145.373C66.8411 145.316 67.2014 144.174 67.6984 142.835C68.1954 141.496 70.2796 135.437 72.33 129.372C74.3805 123.307 76.5967 116.908 77.255 115.152C77.9133 113.396 79.1079 110.131 79.9098 107.896C81.7047 102.895 82.5936 100.451 83.7099 97.4488C85.8396 91.721 87.6621 86.6237 91.4925 75.6829C91.9396 74.406 92.5761 72.6134 92.9073 71.6996C93.2385 70.7858 93.5097 69.8966 93.5097 69.7237C93.5097 69.5507 92.9358 68.8873 92.2344 68.2489C90.7601 66.9072 90.5221 66.1147 91.095 64.4518C91.7125 62.6596 92.018 62.1556 93.2793 60.8447C94.3988 59.6811 94.4563 59.6584 95.2663 60.0625C96.3103 60.5833 97.1501 60.2052 97.3574 59.1208C97.5709 58.0043 97.3261 57.376 96.5076 56.9379C96.1084 56.7242 95.5966 56.1908 95.37 55.7527C94.9905 55.0188 95.0506 54.6748 96.1352 51.3893C98.7243 43.5463 100.589 38.9219 101.635 37.7452C102.572 36.6928 102.715 36.6279 103.468 36.9167C104.006 37.1228 104.465 37.1337 104.81 36.949C105.693 36.4766 106.646 31.9121 106.665 28.0696C106.671 26.8249 106.483 25.916 106.021 24.9629C105.329 23.5323 103.544 21.7444 102.992 21.9284ZM80.5105 109.016C79.1443 112.133 77.9599 115.424 77.4905 117.473L80.5105 109.016ZM17.3792 140.729C16.8985 140.688 16.5502 140.732 16.1796 140.847L17.1913 141.139L25.5236 144.107L25.6001 143.082L40.4239 147.87C33.5068 145.462 22.6391 141.962 19.3743 141.128C18.4733 140.898 17.86 140.77 17.3792 140.729Z" fill="#00482F"/>
</g>
<path d="M48.4415 5.88708C47.4694 5.88708 47.1241 6.06278 46.3032 6.97537C44.8951 8.54076 43.8754 10.6508 42.0606 15.754C41.1808 18.2281 39.7179 22.2115 38.8097 24.6057C36.4899 30.7214 35.4713 33.8478 33.3172 41.4667C32.2822 45.1275 30.7942 49.8839 30.0107 52.0359C28.2988 56.7377 24.0218 69.6617 20.3601 81.1971C18.8908 85.826 17.6185 89.7976 17.5323 90.0233C17.4328 90.2837 17.4989 90.3574 17.7134 90.2248C17.8993 90.1099 16.869 93.4514 15.4237 97.6503C13.9784 101.849 11.7975 108.288 10.5774 111.959C8.44638 118.371 8.3595 118.74 8.3702 121.304C8.38311 124.406 8.67919 125.011 10.0724 124.785C10.7588 124.674 11.1256 124.803 11.6398 125.337C12.009 125.721 12.4322 126.035 12.5801 126.035C12.7399 126.035 12.7731 124.827 12.6617 123.06C12.477 120.127 12.4913 120.032 13.6926 116.312C14.3628 114.237 22.3585 89.8815 31.4607 62.188C40.5629 34.4946 48.2046 11.1833 48.4419 10.3852C48.924 8.76467 49.4521 8.0551 50.63 7.44597C51.0693 7.21879 51.4288 6.91845 51.4288 6.77855C51.4288 6.39061 49.7413 5.88708 48.4415 5.88708ZM25.5682 142.867C24.7122 142.867 24.6738 142.915 24.8192 143.81C24.8208 143.82 24.829 143.85 24.8307 143.861L28.7923 145.272L28.9692 145.335C28.6207 144.691 28.1898 144.297 27.8983 144.478C27.7516 144.568 27.6313 144.504 27.6313 144.335C27.6313 143.707 26.4509 142.867 25.5682 142.867Z" fill="white"/>
<path d="M46.2437 0.0239049C45.339 0.0808322 44.5722 0.23939 43.9494 0.500885C40.8489 1.80257 39.1914 5.17877 34.8923 18.9466C34.0699 21.5803 32.8186 25.3674 32.112 27.3626C31.0352 30.4033 25.6252 46.4783 20.7819 61.0271C19.7012 64.2733 16.1713 74.7025 14.579 79.3755C12.3668 85.8676 3.36685 109.965 0.614825 120.016C0.139845 121.751 -0.404983 123.772 0.445503 125.302C2.51049 129.019 5.25937 133.454 6.62766 135.285C8.74577 137.565 10.2592 138.577 13.1936 139.673C14.1114 140.016 14.8621 140.373 14.8621 140.467L17.1913 141.139L28.7923 145.272L31.2469 146.144C31.3261 146.011 35.9056 147.537 40.5459 149.244C51.3616 153.223 56.3187 154.636 60.5705 154.954C63.7972 155.196 65.816 153.524 67.6874 149.062C68.5164 147.086 70.667 140.87 78.064 119.07C78.5805 117.548 78.7832 117.041 79.035 116.381L79.5689 114.694L84.248 101.489C84.1799 101.421 85.3347 98.0029 86.8136 93.8931C88.2924 89.7834 90.8782 82.5682 92.5598 77.8595C94.2414 73.1508 96.0014 68.2535 96.4709 66.9766C96.9404 65.6996 98.2182 62.1084 99.3102 58.9959C100.402 55.8833 102.036 51.2471 102.941 48.6932C105.399 41.7546 107.918 34.107 108.587 31.5513C109.637 27.544 109.248 25.4508 106.918 22.558C104.94 20.103 101.193 16.9626 99.13 16.0316C97.3078 15.2092 81.824 9.97463 67.8258 5.4488C63.5161 4.05543 59.0598 2.61129 57.9227 2.23918C52.9105 0.598899 48.9577 -0.146967 46.2437 0.0239049ZM46.1766 2.4815C47.9163 2.32817 50.3173 2.92871 53.9328 4.0034C55.8278 4.56668 58.8799 5.47144 60.7155 6.0142C62.5511 6.55697 65.751 7.61245 67.826 8.35957C69.901 9.10668 77.1745 11.5914 83.9897 13.8814C90.8049 16.1714 96.7642 18.2432 97.2325 18.4854C98.4532 19.1166 99.5489 20.5334 99.784 21.7847C100.141 23.6853 99.3691 26.8555 96.0226 37.23C95.2031 39.7704 93.0479 45.7872 90.4612 52.756C89.4541 55.4695 87.6959 60.3668 86.554 63.639C85.4121 66.9111 83.3839 72.5269 82.0469 76.1182C78.7446 84.9892 76.8334 90.4035 73.4418 100.496C71.8594 105.205 70.309 109.71 69.9966 110.508C68.8777 113.367 64.2419 125.973 63.9549 126.937C63.4639 128.587 60.8382 135.907 59.8712 138.322C58.4687 141.824 57.9142 142.757 56.8444 143.419C55.8317 144.044 53.8778 144.373 52.5899 144.133C48.993 143.463 25.5221 135.875 17.7644 132.873C16.2481 132.286 13.5368 131.299 11.7393 130.68C6.37262 128.833 3.68294 126.822 3.26631 124.347C2.91306 122.248 3.8555 118.76 7.92685 107.092C10.1674 100.671 12.6633 93.6541 13.4733 91.4993C15.5676 85.928 19.1987 75.0183 21.4421 67.5568C23.7197 59.9818 25.6633 54.0276 28.4994 45.9363C29.6464 42.6642 30.9544 38.8115 31.406 37.3749C31.8575 35.9384 32.9617 32.6734 33.8601 30.1195C36.5106 22.5853 39.5078 13.7797 40.429 10.8206C42.2143 5.08597 43.277 2.73703 46.1766 2.4815ZM48.6405 5.01645C45.7277 5.01645 44.1422 7.29424 41.7218 14.9573C40.9779 17.3125 39.8482 20.6427 39.2111 22.3577C38.5739 24.0728 37.9382 25.9333 37.7988 26.492C37.6594 27.0507 35.406 33.8417 32.791 41.5832C28.4352 54.4777 26.0697 61.7703 23.9898 68.7178C23.1682 71.4623 15.0711 96.0745 10.1936 110.653C6.97735 120.266 6.57229 122.322 7.57953 123.922C8.30225 125.069 10.5374 126.234 14.6063 127.585C17.3524 128.496 37.0564 135.423 45.9525 138.605C47.9684 139.325 49.9273 139.98 50.3057 140.06C50.6841 140.14 51.7262 140.177 52.6213 140.142C53.9547 140.09 54.4574 139.914 55.4033 139.164C57.3018 137.661 58.3191 135.438 61.8791 125.019C64.7314 116.67 71.7739 96.3237 76.2433 83.5186C77.4689 80.007 79.1176 75.1097 79.9069 72.6357C82.0288 65.9851 84.5566 58.8147 87.2737 51.7404C88.4338 48.7199 94.304 32.1542 95.038 29.8296C96.042 26.65 96.45 24.6113 96.2721 23.6633C96.0346 22.3973 94.338 20.5313 92.6574 19.688C91.2043 18.9588 86.0779 17.1706 81.3208 15.734C79.6449 15.2279 75.4004 13.7698 71.8888 12.4934C59.0265 7.81802 50.3155 5.01645 48.6405 5.01645ZM49.214 7.19729C51.4005 7.46127 58.0438 9.66173 74.7949 15.6086C79.4259 17.2527 84.715 19.085 86.5485 19.6799C93.5972 21.9672 94.7261 22.8868 94.0862 25.8212C93.6689 27.7346 91.9708 32.8406 88.2162 43.4694C86.4683 48.4175 83.8872 55.7963 82.4806 59.8665C81.0739 63.9367 79.5051 68.3767 78.9942 69.7334C78.4833 71.0902 76.9712 75.4449 75.6341 79.4107C74.297 83.3766 72.4217 88.7964 71.4667 91.4547C69.6203 96.5943 67.3809 102.986 63.4681 114.281C55.8021 136.412 55.7682 136.497 54.2725 137.461C53.2613 138.112 51.7199 138.246 50.2679 137.81C46.8523 136.782 44.7186 136.08 38.8047 134.035C35.2931 132.82 29.3075 130.779 25.5032 129.498C19.0401 127.322 13.0295 125.101 10.8941 124.1C9.63708 123.51 8.95177 122.011 9.21708 120.43C9.32921 119.761 10.5878 115.754 12.0139 111.524C13.4401 107.294 14.9133 102.839 15.2877 101.624C15.6622 100.409 17.8688 93.6181 20.191 86.5331C22.5132 79.4482 24.8238 72.28 25.326 70.6041C28.0195 61.6146 37.9759 31.6609 44.1845 13.8678C46.0534 8.51169 46.6009 7.67197 48.5334 7.19772C48.6803 7.16169 48.9017 7.15955 49.214 7.19729ZM103.178 22.5495C103.473 22.641 103.976 23.2043 104.81 24.2767C105.932 25.7187 106.114 26.154 106.222 27.6428C106.366 29.6379 105.922 32.5615 105.083 35.1256C104.508 36.8871 104.472 36.927 103.869 36.5043C103.035 35.9202 102.438 35.956 101.565 36.6429C100.615 37.3899 99.9438 38.8556 97.576 45.3556C94.1468 54.7691 93.975 56.7441 96.5072 57.6453C96.9368 57.7982 96.9998 58.0146 96.8363 58.7778C96.5758 59.9934 96.4976 60.0598 95.8219 59.6378C93.6855 58.3036 90.789 61.4449 90.4234 65.4925C90.2593 67.3095 90.7098 68.274 91.9976 68.8628C92.7102 69.1886 92.9178 69.4445 92.8219 69.8788C92.693 70.4625 86.8976 86.9373 85.0121 92.08C84.4562 93.5964 82.6697 98.4937 81.0424 102.963C79.415 107.432 77.4265 112.852 76.6229 115.006C75.8193 117.161 73.7572 123.104 72.0406 128.211C65.4652 147.776 64.2362 150.777 62.4568 151.618C61.8981 151.882 61.1801 152.154 60.8609 152.221C59.2077 152.569 53.89 151.366 47.656 149.233C44.8627 148.277 39.7043 146.528 36.1927 145.345C24.2319 141.316 17.4773 138.879 12.3952 136.761C10.6387 136.029 9.70278 135.415 8.55006 134.239C7.16281 132.823 6.47346 131.272 7.38908 131.627C7.5886 131.705 9.97211 132.65 12.6856 133.728C18.5428 136.055 26.2522 138.822 36.1927 142.165C40.1832 143.506 43.7092 144.735 44.0285 144.894C46.3921 146.075 52.7472 147.337 55.2677 147.127C56.3986 147.033 57.2933 147.083 57.3937 147.245C57.8013 147.905 61.1352 150.46 61.2274 150.183C61.283 150.016 60.9295 149.089 60.4417 148.123C59.3752 146.01 59.3387 145.229 60.2407 143.8C61.5583 141.713 62.5053 139.59 63.6641 136.124C64.3062 134.203 65.414 131.05 66.126 129.116C66.8379 127.182 68.3831 122.922 69.5592 119.65C70.7353 116.378 72.4373 111.676 73.3419 109.202C75.0589 104.506 77.0578 98.817 81.192 86.8562C82.5437 82.9456 84.421 77.6565 85.3641 75.1026C89.0262 65.186 90.9456 60.0076 93.8077 52.3207C99.158 37.9517 102.796 26.3471 102.796 23.6514C102.796 22.8379 102.883 22.4579 103.178 22.5495ZM103.163 37.8285C103.304 37.9075 103.422 38.0741 103.504 38.334C103.782 39.2087 100.58 49.1128 98.8228 52.8143C98.2721 53.9744 97.7094 54.9932 97.5721 55.078C96.7701 55.5737 96.6719 52.8749 97.4084 50.5794C98.4198 47.4276 100.848 40.8279 101.546 39.3339C102.102 38.1439 102.74 37.5917 103.163 37.8285ZM94.6142 61.0921C95.2718 61.2276 95.1902 63.5732 94.459 65.5469C94.0731 66.5886 93.7567 67.0013 93.2942 67.0679C92.5201 67.1794 92.1998 66.2125 92.4333 64.4713C92.6324 62.9874 93.9446 60.9541 94.6142 61.0921Z" fill="#00482F"/>
<path d="M68.6816 60.6061C67.1576 60.8125 66.1497 62.2061 64.9465 63.033C58.5796 68.2166 52.0754 73.2403 45.3174 77.9124C44.8238 78.094 44.2782 78.8764 43.7357 78.4724C42.6603 76.6903 42.5033 74.5303 41.9865 72.5326C41.5436 70.783 41.4124 68.916 40.7295 67.2442C39.7873 66.1976 38.2072 66.1476 36.9843 65.5841C35.9824 65.3549 35.0026 64.7277 33.9737 64.7571C33.285 65.3224 33.8753 66.3534 33.9786 67.0779C35.8144 73.9869 37.6268 80.9103 39.7702 87.73C40.336 88.5661 41.2832 87.5531 41.8611 87.2441C52.2696 79.9259 62.6508 72.5535 72.6853 64.7263C73.3094 64.0538 74.4953 63.6308 74.6456 62.6408C74.3117 61.8046 73.1271 61.8499 72.4151 61.487C71.1903 61.1489 69.9614 60.6644 68.6816 60.6061Z" fill="#DDFA88"/>
<path d="M68.4887 58.6865L67.2869 59.4037C66.6257 59.7981 63.4232 62.2233 60.1701 64.7929C53.7911 69.8315 45.2835 76.1179 44.8438 76.1179C44.601 76.1179 42.8545 69.0109 42.5044 66.5983C42.4239 66.0435 42.1046 65.4765 41.746 65.252C40.6844 64.5873 34.8143 62.9895 33.2904 62.9504C31.996 62.9173 31.8295 62.9834 31.7473 63.5622C31.5677 64.826 34.5339 76.9476 36.9056 84.6423C37.3914 86.2182 37.7893 87.7202 37.7899 87.9799C37.7905 88.2396 38.0589 88.8913 38.3863 89.4283C38.9044 90.2781 39.0931 90.382 39.8444 90.2318C40.3192 90.1368 43.1526 88.354 46.1408 86.2697C65.8037 72.5547 77.5479 63.4217 77.5479 61.846C77.5479 61.1261 76.9416 60.8721 72.4606 59.7136L68.4887 58.6865ZM68.575 60.9299C69.2573 60.8768 70.2049 61.1933 72.2858 61.812C74.309 62.4135 74.6482 62.5975 74.3175 62.9151C72.337 64.8172 59.1923 74.6122 48.8169 81.9173C45.864 83.9964 42.8213 86.1538 42.055 86.7118C40.556 87.8035 40.1508 87.9311 39.9886 87.3635C39.9316 87.164 39.1567 84.5194 38.2668 81.4867C37.3769 78.454 36.2553 74.4058 35.774 72.4904C35.2926 70.575 34.6441 68.1264 34.3328 67.049C33.9356 65.6737 33.8686 65.09 34.1084 65.09C34.6281 65.09 39.9181 66.8714 40.3057 67.1769C40.4927 67.3244 40.7321 67.9927 40.8379 68.6618C40.9438 69.331 41.4236 71.7067 41.9037 73.9413C42.7355 77.8127 43.2437 79.0202 44.0416 79.0202C44.9475 79.0202 59.3676 68.2408 66.4554 62.2656C67.4755 61.4056 67.8927 60.983 68.575 60.9299Z" fill="#00482F"/>
</svg>
