<svg width="98" height="95" viewBox="0 0 98 95" fill="none" xmlns="http://www.w3.org/2000/svg">
<path d="M33.3497 78.3958C30.0057 78.3531 26.8372 80.8517 26.127 84.1235C25.6701 86.2958 26.2113 88.6649 27.6758 90.3527C29.4939 92.5904 32.7335 93.6409 35.4698 92.6035C37.4304 91.9292 39.0899 90.4176 39.8477 88.4742C40.5271 87.1101 40.4759 85.527 40.3185 84.0526C39.983 82.6206 39.1928 81.2912 38.1259 80.2889C37.654 79.9678 37.1985 80.4659 37.1346 80.921C36.3341 82.9698 35.7555 85.1322 34.6461 87.0437C34.3962 87.2551 34.0024 86.8909 33.7257 86.8025C32.5385 86.0983 31.2731 85.4198 30.3443 84.38C30.3699 84.0934 30.2737 83.4614 30.7621 83.57C31.9367 83.6175 32.6924 84.8033 33.8206 84.9641C34.4784 84.7939 34.4646 83.9316 34.7481 83.4252C35.14 82.1513 35.839 80.912 35.8354 79.5523C35.8022 78.6709 34.7972 78.4382 34.0828 78.4136C33.8389 78.3958 33.5942 78.391 33.3497 78.3958Z" fill="#DDFA88"/>
<path d="M24.2746 59.6437C22.7236 59.5581 21.2709 60.3427 20.0866 61.2755C18.3623 62.6723 17.2812 64.8546 17.4066 67.0917C17.4441 71.0998 21.3567 74.6369 25.3628 74.1242C27.1534 73.8776 28.903 73.0409 30.0471 71.6119C31.8501 69.6572 32.356 66.6571 31.4271 64.1874C30.9598 63.1304 30.2971 62.1235 29.4811 61.3174C28.8385 60.9724 28.6177 61.8723 28.4741 62.3272C27.7351 64.2799 27.155 66.2932 26.1327 68.1247C25.904 68.458 25.4443 68.0562 25.1658 67.9659C24.0299 67.2991 22.8414 66.6412 21.922 65.6844C21.577 65.3382 21.8051 64.5147 22.3747 64.7146C23.3689 65.0054 24.1389 65.7542 25.0839 66.1378C25.8171 66.2376 25.8527 65.292 26.0984 64.8211C26.5383 63.4032 27.3327 62.0071 27.2461 60.4828C26.9276 59.4463 25.6051 59.6771 24.7693 59.6428C24.6044 59.6431 24.4395 59.6435 24.2746 59.6437Z" fill="#DDFA88"/>
<path d="M16.4056 41.0836C12.9845 41.0738 9.79313 43.8324 9.25545 47.1985C9.1286 48.7089 9.21498 50.2953 9.98992 51.639C11.3143 54.3594 14.4733 56.079 17.4783 55.5766C20.1632 55.2003 22.4388 53.1496 23.2748 50.5963C24.0634 48.3192 23.6396 45.6506 22.0927 43.7835C21.7164 43.4053 21.3843 42.4884 20.7379 42.8275C20.2568 43.39 20.1881 44.2209 19.8759 44.8937C19.2379 46.5383 18.7424 48.2686 17.8234 49.7839C16.6625 49.4959 15.6957 48.7032 14.7022 48.0689C14.3046 47.7162 13.6673 47.4424 13.5475 46.8842C13.4608 46.496 13.7692 46.0221 14.1996 46.2353C15.2214 46.5279 16.0116 47.3226 16.9733 47.7094C17.6501 47.6426 17.6306 46.7483 17.898 46.2598C18.3169 44.9211 19.0232 43.6106 19.0384 42.1824C18.9582 41.2358 17.8363 41.0938 17.0851 41.0885C16.8587 41.0798 16.6321 41.0797 16.4056 41.0836Z" fill="#DDFA88"/>
<path d="M8.4531 22.9325C4.82073 22.957 1.43995 26.1169 1.32428 29.7787C1.1625 32.1526 2.26242 34.539 4.15754 35.9754C5.4742 37.0121 7.15258 37.6296 8.84033 37.4594C10.6876 37.4742 12.4448 36.6037 13.6801 35.2536C14.7507 34.2211 15.4572 32.8047 15.6853 31.3387C15.8164 29.8869 15.829 28.3504 15.1095 27.0332C14.6741 26.2042 14.1427 25.3784 13.419 24.7755C12.8622 24.4555 12.5167 25.1353 12.4171 25.5846C11.6371 27.5772 11.0812 29.6765 9.98766 31.5366C9.76142 31.7778 9.37665 31.4201 9.11029 31.3367C7.96031 30.6658 6.75629 30.0081 5.81132 29.0593C5.53322 28.7176 5.64956 27.873 6.2402 28.0677C7.29054 28.2996 8.05332 29.1887 9.07077 29.4894C9.7776 29.4706 9.77649 28.564 10.0357 28.082C10.4168 26.849 11.031 25.6618 11.1789 24.3702C11.2692 23.5364 10.4679 22.9112 9.67822 22.9694C9.27056 22.9426 8.86169 22.9266 8.4531 22.9325Z" fill="#DDFA88"/>
<path d="M29.8944 93.7922C28.2538 93.0517 25.9714 90.8345 25.2744 89.3041C24.5492 87.7118 24.4514 84.8692 25.0519 82.8367C25.3134 81.9517 26.1101 80.7826 27.1925 79.6957C29.2656 77.6137 31.1321 76.9689 34.3403 77.2264L36.4973 77.3996L37.5357 74.4632C38.6868 71.2079 39.3458 70.4756 40.2819 71.4117C40.8403 71.9701 40.8094 72.183 39.7058 75.3809L38.5397 78.7601L39.7667 80.1935C43.1107 84.1002 42.1901 90.1838 37.829 92.9988C36.3503 93.9532 35.7833 94.1108 33.548 94.1886C31.8786 94.2468 30.5922 94.1071 29.8944 93.7922ZM36.3116 91.7609C40.0727 89.7753 41.1863 84.7069 38.5736 81.4658L37.7766 80.4772L36.5738 83.8425C35.9122 85.6935 35.1415 87.3526 34.8611 87.5295C34.4897 87.7637 33.7281 87.4437 32.058 86.3515C30.1415 85.0982 29.7796 84.7117 29.8544 83.9986C29.9784 82.817 30.9296 82.7363 32.4981 83.7742L33.8057 84.6395L34.7481 82.0556C35.8335 79.0797 35.7307 78.8722 33.1658 78.8637C29.95 78.8529 26.9133 81.4986 26.485 84.6842C25.7403 90.2223 31.4446 94.3304 36.3116 91.7609ZM50.7063 82.2324C50.5359 81.7895 49.9943 80.5217 49.5029 79.4151C49.0114 78.3086 48.6093 77.2246 48.6093 77.0063C48.6093 76.6576 87.2337 63.0915 88.2008 63.1006C88.5599 63.1045 91.2148 68.903 90.9695 69.1483C90.9049 69.2128 82.1566 72.2609 71.5287 75.9219C60.9009 79.5828 51.9378 82.6815 51.6108 82.808C51.1832 82.9733 50.9291 82.8118 50.7063 82.2324ZM21.3323 74.9556C19.6917 74.2152 17.4093 71.9979 16.7123 70.4676C15.9871 68.8752 15.8893 66.0327 16.4899 64.0001C16.7513 63.1152 17.5481 61.946 18.6304 60.8591C20.7035 58.7771 22.57 58.1323 25.7782 58.3899L27.9352 58.563L28.9736 55.6266C30.1247 52.3713 30.7837 51.639 31.7198 52.5751C32.2782 53.1335 32.2473 53.3464 31.1437 56.5444L29.9776 59.9235L31.2046 61.3569C34.5486 65.2636 33.628 71.3473 29.267 74.1622C27.7883 75.1166 27.2213 75.2742 24.9859 75.352C23.3166 75.4101 22.0301 75.2706 21.3323 74.9556ZM27.7496 72.9243C31.5106 70.9387 32.6242 65.8703 30.0115 62.6293L29.2145 61.6406L28.0117 65.006C27.3502 66.8569 26.5794 68.516 26.299 68.6929C25.9276 68.9272 25.166 68.6071 23.4959 67.5149C21.5794 66.2616 21.2175 65.8752 21.2923 65.162C21.4163 63.9804 22.3676 63.8997 23.936 64.9376L25.2437 65.803L26.1861 63.2191C27.2715 60.2431 27.1686 60.0357 24.6037 60.0271C21.3879 60.0164 18.3513 62.662 17.9229 65.8476C17.1782 71.3857 22.8826 75.4938 27.7496 72.9243ZM41.6656 61.1497C40.9664 59.5097 40.5088 58.0698 40.6488 57.95C40.7888 57.8301 45.9122 56.0173 52.0341 53.9214C58.156 51.8255 70.3271 47.6436 79.0811 44.6284C87.835 41.6132 95.1075 39.2582 95.2422 39.3951C95.3768 39.5321 96.0327 40.9216 96.6997 42.4831C97.5601 44.4972 97.7902 45.368 97.4915 45.4802C95.7108 46.149 43.3207 64.1316 43.1529 64.1316C43.0342 64.1316 42.3649 62.7898 41.6656 61.1497ZM13.1127 56.4615C11.4721 55.7211 9.18969 53.5038 8.49273 51.9735C7.7675 50.3811 7.66973 47.5386 8.27026 45.506C8.53174 44.6211 9.32848 43.452 10.4108 42.365C12.4839 40.283 14.3504 39.6383 17.5586 39.8958L19.7156 40.0689L20.754 37.1325C21.9051 33.8772 22.5641 33.145 23.5002 34.0811C24.0586 34.6394 24.0277 34.8523 22.9241 38.0502L21.7581 41.4294L22.985 42.8629C26.329 46.7696 25.4084 52.8532 21.0474 55.6681C19.5687 56.6226 19.0017 56.7801 16.7663 56.8579C15.097 56.916 13.8105 56.7765 13.1127 56.4615ZM19.53 54.4302C23.291 52.4446 24.4046 47.3762 21.7919 44.1352L20.9949 43.1465L19.7921 46.5118C19.1306 48.3628 18.3598 50.0219 18.0794 50.1988C17.708 50.4331 16.9464 50.113 15.2764 49.0208C13.3598 47.7675 12.9979 47.3811 13.0728 46.6679C13.1967 45.4863 14.148 45.4056 15.7164 46.4435L17.0241 47.3089L17.9665 44.7249C19.0519 41.749 18.949 41.5415 16.3841 41.533C13.1683 41.5223 10.1317 44.1679 9.7033 47.3535C8.9586 52.8917 14.663 56.9997 19.53 54.4302ZM34.385 44.1224C34.0984 43.4363 33.4957 42.0425 33.0457 41.0251L32.2276 39.1752L33.6544 38.6753C51.9989 32.2486 93.9715 17.9367 94.0993 18.0646C94.3954 18.3606 96.5572 23.4689 96.5525 23.8614C96.5496 24.1329 59.719 36.9858 35.3362 45.2245C35.0922 45.3069 34.6807 44.8301 34.385 44.1224ZM5.23562 38.3099C3.59504 37.5695 1.31258 35.3522 0.61561 33.8219C-0.109611 32.2295 -0.207358 29.387 0.39317 27.3544C0.654651 26.4695 1.45137 25.3003 2.53369 24.2134C4.60683 22.1314 6.4733 21.4866 9.68151 21.7442L11.8385 21.9173L12.8769 18.9809C14.028 15.7256 14.687 14.9933 15.6231 15.9294C16.1815 16.4878 16.1506 16.7007 15.047 19.8987L13.8809 23.2778L15.1079 24.7112C18.4519 28.6179 17.5313 34.7016 13.1702 37.5165C11.6916 38.4709 11.1245 38.6285 8.88919 38.7063C7.21985 38.7644 5.93339 38.6249 5.23562 38.3099ZM11.6528 36.2786C15.4139 34.293 16.5275 29.2246 13.9148 25.9836L13.1178 24.9949L11.915 28.3603C11.2534 30.2112 10.4827 31.8703 10.2023 32.0472C9.8309 32.2815 9.06925 31.9614 7.39922 30.8692C5.48271 29.6159 5.12084 29.2295 5.19565 28.5163C5.31961 27.3347 6.27087 27.254 7.83927 28.2919L9.14695 29.1573L10.0894 26.5734C11.1748 23.5974 11.0719 23.39 8.50698 23.3814C5.2912 23.3707 2.25456 26.0163 1.8262 29.2019C1.0815 34.74 6.78585 38.8481 11.6528 36.2786ZM25.8769 24.1721C25.1851 22.5378 24.7383 21.091 24.8841 20.9571C25.4447 20.4419 86.0912 -0.240642 86.3295 0.00212039C86.4679 0.143151 87.1199 1.53887 87.7783 3.10374C88.5962 5.04763 88.8473 5.99619 88.5708 6.09803C88.3482 6.17997 82.5408 8.18248 75.6654 10.548C68.7901 12.9135 55.1391 17.6151 45.3298 20.9962C35.5206 24.3772 27.4138 27.1435 27.3148 27.1435C27.2157 27.1435 26.5687 25.8063 25.8769 24.1721Z" fill="#00482F"/>
</svg>
