<svg width="112" height="185" viewBox="0 0 112 185" fill="none" xmlns="http://www.w3.org/2000/svg">
<path d="M75.844 152.608L61.6682 156.278L64.7229 164.214L64.9748 164.134C66.2188 167.15 67.3354 170.232 68.6995 173.233C68.8995 173.833 69.5006 173.533 69.9006 173.333C71.6006 172.433 73.2002 171.133 75.0002 170.333C75.8002 170.933 75.9006 172.033 76.4006 172.833C77.6006 175.633 78.7002 178.434 80.0002 181.134C80.3003 181.634 80.9006 181.234 80.9006 180.733C81.3006 177.133 81.3995 173.634 81.6995 170.034C81.8995 167.134 82.2006 164.133 82.4006 161.233C82.3006 160.633 81.5991 160.934 81.2991 161.134C79.9991 161.634 78.6991 162.433 77.2991 162.833C76.7991 161.833 76.8995 160.634 76.6995 159.534C76.6031 158.667 76.6866 157.616 76.2463 156.825L75.844 152.608Z" fill="#DDFA88"/>
<g opacity="0.5" style="mix-blend-mode:hard-light">
<path d="M75.7795 152.675L61.5354 156.103L63.7385 161.782C63.3699 162.659 63.8439 163.024 64.4006 163.233C65.6006 163.633 68.1002 161.833 70.0002 159.233C70.4002 158.633 70.3995 158.635 71.1995 158.835C71.5995 158.935 72.4995 159.034 73.1995 159.034C74.3995 159.034 74.4006 159.034 74.4006 159.634C74.4006 161.234 74.8998 165.834 75.0999 166.034C75.3998 166.434 75.9006 166.234 77.9006 165.034C78.8006 164.534 79.5995 164.034 79.6995 164.034C79.7995 164.034 79.7995 166.833 79.6995 170.233C79.5995 176.833 79.7995 181.335 80.1995 181.835C80.5995 182.235 80.6007 182.234 80.9006 181.634C81.1006 181.034 81.401 177.633 81.801 168.733C82.001 163.533 82.2006 162.035 82.4006 161.835C82.6005 161.635 82.3693 161.324 82.3693 161.124C82.3693 160.824 81.9993 160.134 81.6993 160.134C81.5993 160.134 80.499 160.834 79.299 161.634C78.099 162.434 77.0997 163.034 77.0997 163.034C76.8997 162.934 76.5001 158.933 76.5001 158.233C76.5001 157.879 76.4558 157.532 76.3693 157.216L75.7795 152.675Z" fill="#00482F"/>
</g>
<path d="M78.2998 178.734C77.4998 177.434 76.1998 174.534 75.5998 172.434C75.2998 171.434 74.9998 170.534 74.9998 170.534C74.9998 170.534 74.4998 170.734 73.9998 171.034C73.4998 171.334 72.2998 172.034 71.2998 172.634C68.9998 173.834 68.4998 173.834 67.8998 172.434C66.9998 170.634 65.3998 166.534 64.6998 164.434C63.8998 161.934 60.9652 156.514 61.9354 156.318L63.7875 155.942C64.5998 158.476 65.5656 160.945 66.4998 163.434C67.4998 166.134 69.4998 171.234 69.5998 171.234C69.5998 171.234 70.6998 170.634 71.8998 169.834C75.4998 167.634 75.7998 167.534 76.3998 168.334C76.9998 169.334 79.0998 178.034 78.9998 179.034C78.8998 179.534 78.7998 179.434 78.2998 178.734Z" fill="white"/>
<path d="M75.8049 151.733L61.299 155.704C60.9744 155.794 60.7989 156.145 60.9221 156.458L63.6662 163.345C65.2355 167.559 68.0216 174.451 68.4006 174.735C68.8006 175.035 69.5002 174.736 72.0002 173.136C73.3002 172.336 74.4998 171.636 74.5998 171.636C74.6998 171.636 75.1994 172.535 75.6994 173.735C77.7994 178.935 79.6002 183.135 80.0002 183.735C80.4002 184.435 80.899 184.535 80.799 184.335C80.999 184.035 81.599 178.436 81.799 174.636C81.799 173.436 82.099 169.835 82.299 166.735C82.499 163.635 82.6998 160.834 82.5998 160.534C82.5998 160.334 82.3994 160.034 82.1994 159.934C81.9994 159.834 80.8998 160.335 79.5998 160.935C78.3998 161.535 77.299 162.034 77.299 162.034C76.9629 158.797 76.8006 155.516 76.5197 152.227C76.4868 151.876 76.145 151.64 75.8049 151.733ZM75.4494 153.003C75.4494 153.003 76.1966 161.687 76.554 162.836C76.6333 163.092 76.7212 163.246 76.82 163.258C77.2707 163.315 78.4994 162.734 79.6994 162.134L81.9006 161.134L81.799 162.335C81.499 164.735 80.999 171.633 80.799 175.733C80.699 178.033 80.5006 180.334 80.4006 180.534C80.2006 181.234 80.2002 181.233 80.0002 180.733C78.0002 176.033 75.7002 170.733 75.5002 170.333C75.3002 170.033 74.999 169.833 74.799 169.833C74.599 169.833 73.199 170.634 71.799 171.634C70.399 172.634 69.1002 173.333 69.0002 173.233C68.9002 173.133 67.8002 170.533 66.5002 167.333L64.4689 162.3L62.2072 156.628L75.4494 153.003Z" fill="#00482F"/>
<path d="M15.9889 148.373C14.8889 148.373 14.9 150.334 14.2 151.134C12.6 152.834 11.2 154.834 9.59996 156.634C8.59996 156.734 7.59996 156.734 6.69996 157.234C5.59996 157.734 4.69996 158.934 4.79996 160.234C4.59995 161.834 5.49995 163.434 6.89995 164.134C8.29995 165.034 10.3 164.934 11.5 163.734C12.4 162.934 12.8 161.834 12.7 160.634C12.7 160.034 12.4999 159.334 12.6 158.734C14.4 157.234 16.6 156.234 18.4 154.734C18.9 154.334 20.4484 154.327 20.2484 153.827C21.0375 153.607 22.4243 153.276 22.1243 152.276C21.7243 151.976 17.8956 146.703 17.3956 146.703L15.9889 148.373Z" fill="#DDFA88"/>
<g opacity="0.5" style="mix-blend-mode:hard-light">
<path d="M7.7998 164.734C6.79981 164.234 6.79981 163.934 7.7998 163.634C9.2998 163.234 9.79981 162.834 10.1998 161.934C10.5998 161.234 10.5998 160.834 10.4998 159.634C10.3998 158.134 10.3998 158.134 11.0998 157.534C11.4998 157.234 12.8998 156.134 14.2998 155.134C16.3998 153.634 16.7998 153.234 16.6998 152.834C16.5998 152.634 16.5998 152.234 16.5998 152.034C16.5998 151.734 16.2998 151.634 15.2998 151.634C13.7998 151.534 13.4998 151.234 14.2998 150.434C14.8998 149.834 15.658 146.996 17.258 146.996C18.458 146.996 18.9338 148.122 20.0306 149.795C19.9306 150.395 21.1076 150.732 21.3076 151.332C21.5076 151.832 21.9153 152.146 21.9153 152.446C21.9153 152.946 18.5998 155.534 18.1998 155.334C18.0998 155.334 17.3998 155.634 16.7998 156.134C16.1998 156.634 14.9998 157.434 14.1998 157.934L12.6998 158.934V160.234C12.6998 161.234 12.5998 161.834 12.0998 162.834C11.0998 164.834 9.49981 165.534 7.7998 164.734Z" fill="#00482F"/>
</g>
<path d="M17.3557 145.888C17.186 145.89 17.0261 145.968 16.9202 146.1C14.3033 149.221 11.8774 152.497 9.29907 155.634L8.09984 155.735C6.59984 155.935 5.10062 156.735 4.40062 157.835C3.90062 158.535 3.79907 158.835 3.79907 160.335C3.79907 161.735 3.79906 162.134 4.29907 162.934C5.29906 164.634 6.79906 165.534 8.79906 165.534C9.99906 165.534 10.2995 165.435 11.1995 164.934C11.7995 164.535 12.3991 163.935 12.7991 163.335C13.3991 162.335 13.4006 162.136 13.4006 160.636V158.935L16.1995 157.136L22.5452 152.974C22.8289 152.791 22.8908 152.402 22.678 152.14L17.7971 146.101C17.6898 145.966 17.5275 145.888 17.3557 145.888ZM17.3618 147.356L21.4008 152.36C21.4008 152.36 17.4596 154.904 15.0004 156.433C13.6004 157.332 12.3993 158.133 12.2993 158.333C12.1993 158.533 12.1993 159.031 12.2993 159.731C12.3993 160.331 12.5008 161.232 12.4008 161.632C12.3008 162.632 11.1 163.931 10.1 164.231C9.10004 164.531 8.70002 164.432 7.60002 163.932C6.00002 163.332 5.00042 161.932 5.00042 160.132C5.00042 158.232 6.30082 157.033 8.40082 156.833L9.79925 156.731C17.3952 147.307 4.60203 163.254 13.7719 151.829C14.602 150.864 17.3618 147.356 17.3618 147.356Z" fill="#00482F"/>
<path d="M97.1 64.734C96 64.9339 95.6 66.334 94.9 67.034C92.8 70.134 90.6 73.234 88.7 76.334C88.4 77.434 89.7 77.8341 90.4 78.334C93.7 80.134 97.3 81.934 101.1 81.334C102.9 81.334 104.4 79.734 104.3 77.934C104.5 75.234 103.1 72.734 101.9 70.434C100.7 68.434 99.4 66.434 97.7 64.734C97.5 64.734 97.3 64.734 97.1 64.734Z" fill="#267F4C"/>
<path d="M79.0001 54.834C77.2001 54.834 75.8001 56.634 75.9001 58.334C76.0001 61.734 77.5001 64.934 79.2001 67.834C79.8001 68.734 80.3001 69.734 81.1001 70.434C82.1001 70.434 82.7001 69.434 83.5001 68.934C86.5001 66.434 89.6001 64.134 92.5001 61.534C93.1001 60.934 92.6001 60.134 92.0001 59.834C88.9001 57.734 85.5001 56.234 81.9001 55.234C81.0001 55.0341 80.0001 54.834 79.0001 54.834Z" fill="#267F4C"/>
<path d="M79.3 83.1341C78.7 83.1341 78.5 83.834 78.5 84.334C78.3 86.034 78.2 87.734 78 89.434C78 90.034 78.7 90.4341 79.2 90.2341C80.2 89.934 81.2 90.1339 82.2 89.9339C82.8 89.734 82.8 89.034 82.7 88.534C82.6 87.5339 82.6 86.434 82.3 85.434C82 84.634 81.1 84.2339 80.5 83.734C80.2 83.534 79.8 83.1341 79.3 83.1341Z" fill="#267F4C"/>
<path d="M85.1999 92.434C84.3999 92.434 84.1999 93.334 84.0999 94.034C83.9999 94.534 83.9999 95.334 84.5999 95.534C87.2999 96.334 90.0999 97.034 92.8999 97.634C93.7999 97.834 94.4999 97.134 95.0999 96.634C95.6999 96.034 96.4999 95.634 96.9999 94.934C97.2998 94.334 96.6999 93.834 96.1999 93.834C92.5999 93.4341 89.0999 92.934 85.5999 92.434C85.4999 92.434 85.3999 92.434 85.1999 92.434Z" fill="#267F4C"/>
<path d="M49.0999 24.934C47.6999 24.8338 46.2999 25.534 45.5999 26.734C45.1999 27.734 45.1999 28.934 45.3999 30.034C45.7999 31.034 46.6999 31.834 47.6999 32.234C48.7999 32.5341 50.0999 32.5341 51.0999 31.834C52.2999 30.934 53.0999 29.334 52.6999 27.834C52.2999 26.334 50.8999 24.834 49.0999 24.934Z" fill="#267F4C"/>
<path d="M47.8 52.634C47.1 52.9341 47.1 53.734 46.9 54.334C46.5 56.134 46.1 57.834 45.7 59.634C45.7 60.334 46.4 60.634 47 60.634C47.8 60.634 48.6 60.7341 49.3 60.5338C49.8 60.3339 49.8 59.7339 49.7 59.2339C49.4 57.2339 49.2 55.1339 48.8 53.1339C48.5999 52.7339 48.2 52.434 47.8 52.634Z" fill="#267F4C"/>
<path d="M45.1001 64.834C44.6001 65.1341 44.6001 65.834 45.1001 66.234C46.6001 67.834 48.2001 69.334 49.5001 71.034C49.7001 71.634 50.7001 71.734 50.9001 71.1342C51.1001 70.5342 50.9001 69.8341 50.8001 69.1341C50.6001 67.9341 50.5001 66.7342 50.3001 65.6342C50.1001 64.9342 49.3001 65.1342 48.7001 65.0342C47.5001 65.0342 46.4001 64.8342 45.3001 64.8342C45.3001 64.7341 45.2001 64.834 45.1001 64.834Z" fill="#267F4C"/>
<path d="M42.5 70.034C42.1 70.534 42.1 71.234 41.9 71.834C41.6 73.434 41.1 74.934 40.9 76.534C40.8 77.134 41.5 77.534 42 77.534C44.6 77.734 47.1 77.7339 49.7 77.7339C50.4 77.6338 50.6 76.7339 50.1 76.3339C47.9 74.234 45.7 72.2339 43.5 70.034C43.2 69.834 42.9 69.7339 42.5 70.034Z" fill="#267F4C"/>
<path d="M39.9 80.834C39.3 80.9338 39.2 81.634 39.2 82.134C38.8 84.434 38.1 86.634 37.6 88.934C37.1 90.934 36.5 92.934 36 94.934C35.9 95.634 36.7 96.034 37.2 95.634C40 93.134 42.6 90.334 45.3 87.834C47.1 86.134 49 84.434 50.9 82.734C51.4 82.234 50.9 81.434 50.3 81.434C46.9 81.2341 43.5 81.3339 40.1 80.834C40 80.834 39.9 80.834 39.9 80.834Z" fill="#267F4C"/>
<path d="M51.9 86.234C51.2 86.434 50.9 87.134 50.3 87.534C47.5 90.534 44.7 93.434 41.8 96.434C41.4 96.934 41.7 97.734 42.4 97.734C45.6 97.9339 48.8 97.8342 52 98.0341C52.6 97.9339 53.4 98.234 53.8 97.6341C54 96.9341 53.8 96.2341 53.8 95.5341C53.5 92.6341 53.2 89.7341 52.8 86.8341C52.7 86.4341 52.3 86.234 51.9 86.234Z" fill="#267F4C"/>
<path d="M39.2 102.234C38.5 102.134 38.1 103.034 38.5 103.534C39.3 104.234 40.4 104.834 41.2 105.534C45.9 108.834 50.4 112.434 55 115.834C55.4 116.134 55.9 116.434 56.4 116.134C56.9 115.634 56.6 114.934 56.5 114.334C56 111.134 55.5 107.834 54.8 104.634C54.7 104.034 54.3 103.634 53.7 103.534C51.7 103.234 49.6 103.134 47.5 102.934C44.8 102.634 42 102.434 39.2 102.234Z" fill="#267F4C"/>
<path d="M33.7 105.534C33.2 105.534 33 106.034 32.9 106.434C32.2 109.334 31.6 112.234 30.7 115.134C30.6 115.634 30.2 116.234 30.5 116.734C31.1 117.534 31.9 118.134 32.5 118.834C33.3 119.734 34 120.634 34.5 121.634C34.7 122.034 35.2 122.434 35.7 122.134C36.7 121.634 37.8 120.934 39 120.934C40 120.934 41 120.834 42 121.034C43.3 121.434 44.5 122.134 45.4 123.234C45.7 123.634 46.1 123.834 46.5 123.634C47 123.234 47.4 122.734 47.9 122.234C48.2 121.834 48.7 121.434 48.9 120.934C49.1 120.334 48.4 120.034 48.1 119.634C43.8 115.234 39.6 110.834 35.4 106.434C34.8 106.134 34.4 105.534 33.7 105.534Z" fill="#267F4C"/>
<path d="M49 32.734C48.1 32.934 48.2 34.034 48 34.734C45.8 44.634 43 54.334 40.5 64.134C37.3 75.734 34.1 87.334 30.7 98.8341C29.2 103.934 27.7 109.134 26.5 114.334C26.7 115.134 27.7 115.134 28.3 115.534C28.9 115.634 30 116.334 30.3 115.534C31.4 112.234 32.1 108.834 33.5 105.534C33.6 105.334 33.8 104.834 34 105.234C39.2 110.134 44.1 115.334 49 120.534C49.7 120.834 50.5 120.134 51.3 120.134C53.7 119.834 56.3 120.334 58.3 121.734C59 121.834 59.2 120.834 59.7 120.434C60.3 119.534 61.1 118.834 61.7 118.034C60.6 112.234 59.6 106.334 58.9 100.434C57.8 91.1339 56.5 81.8339 55.1 72.6339C54.2 65.2339 53.4 57.9339 52.3 50.5339C51.5 44.7339 50.7 38.9339 49.9 33.1339C49.9 32.6339 49.4 32.734 49 32.734ZM48.2 49.634C49.1 53.234 49.4 56.934 50 60.634C48.4 60.634 46.9 60.634 45.3 60.5338C46.2 56.9338 47.1 53.334 48.2 49.634ZM44.8 64.934C46.6 65.0341 48.5 64.934 50.3 65.1339C50.9 66.3339 50.8 67.7339 51.1 69.0339C51.3 70.3339 51.5 71.6339 51.7 72.9339C49.3 70.6339 46.9 68.234 44.8 65.6339C44.6 65.3339 44 64.7339 44.7 64.8339C44.6 64.9341 44.7 64.934 44.8 64.934ZM42.7 69.434C45.5 71.734 48.2 74.234 50.9 76.634C51.1 76.834 51.8 77.434 51.4 77.734C49.2 78.0341 47 77.6339 44.8 77.6339C43.5 77.6339 42.1 77.6339 40.8 77.4339C41.1 75.0339 41.8 72.6339 42.4 70.2339C42.5 70.1338 42.5 69.534 42.7 69.434ZM39.8 80.934C43.4 81.0342 47.1 81.2341 50.7 81.2341C51 81.3343 52.2 81.1339 51.7 81.6341C49.6 84.0341 47.2 86.1341 45 88.3341C41.9 91.2341 39 94.3341 35.8 97.1341C35.6 97.2342 35 97.8341 35.2 97.2342C36.6 91.8342 38.1 86.3342 39.7 81.0342C39.7 80.9341 39.8 80.934 39.8 80.934ZM52.4 85.934C52.8 86.2341 52.7 86.934 52.9 87.4341C53.4 90.934 53.9 94.334 53.9 97.834C54 98.534 53.1 98.234 52.7 98.334C48.7 98.2342 44.8 98.2342 40.8 97.834C42 96.034 43.7 94.534 45.2 92.934C47.5 90.634 49.6 88.134 52.2 86.134C52.3 85.9341 52.4 85.934 52.4 85.934ZM37 102.134C42.2 102.234 47.5 102.634 52.7 102.934C53.4 103.034 54.2 102.934 54.8 103.334C55.7 107.634 56.5 111.934 57.1 116.234C57.2 116.534 57.1 117.434 56.6 117.034C54 115.434 51.8 113.434 49.3 111.734C45.1 108.534 40.9 105.434 36.7 102.334C36.4 102.034 36.8 102.134 37 102.134Z" fill="#DDFA88"/>
<path d="M59.9999 137.534C58.8999 137.634 58.2999 138.734 57.5999 139.534C56.5999 140.834 55.3999 142.134 53.7999 142.834C52.0999 143.634 50.2999 144.134 48.3999 143.834C46.4999 143.634 44.7999 142.734 42.9999 142.334C41.7999 142.134 40.8999 143.434 40.7999 144.634C40.5999 146.934 42.1999 148.934 43.9999 150.134C45.5999 151.234 47.4999 151.934 49.4999 151.834C50.9999 151.834 52.5999 151.834 53.9999 151.234C56.6999 150.234 58.8999 148.134 60.4999 145.834C61.8999 143.834 62.6999 141.234 61.6999 138.934C61.3999 138.134 60.7999 137.534 59.9999 137.534Z" fill="#DDFA88"/>
<path d="M98.7999 102.034C96.8999 102.234 95.4999 104.134 95.7999 106.034C95.7999 107.134 96.7999 107.834 97.1999 108.734C95.9999 109.234 95.0999 110.434 94.0999 111.334C91.1999 114.134 88.0999 116.834 85.2999 119.734C84.8999 120.934 84.4999 122.234 84.3999 123.434C84.9999 124.434 86.1999 124.834 86.9999 125.634C87.6999 125.934 88.1999 126.834 88.8999 126.834C89.8999 125.934 90.4999 124.634 91.2999 123.534C93.9999 119.634 96.8999 115.934 99.5999 112.134C99.7999 111.934 99.4999 111.434 99.5999 111.334C100.9 111.534 102.4 111.834 103.7 111.234C104.4 110.634 103.5 109.834 103.1 109.334C102 108.134 101 106.734 99.4999 105.934C100.4 105.534 101.9 105.634 102.4 104.634C102.5 103.834 101.6 103.334 101.1 102.834C100.5 102.434 99.6999 102.034 98.7999 102.034Z" fill="#DDFA88"/>
<path d="M80.7999 90.234C79.0999 90.234 77.5999 91.734 77.5999 93.434C77.6999 95.134 79.2999 96.734 80.9999 96.434C82.9999 96.2341 84.3999 93.834 83.5999 91.934C83.1999 90.834 81.9999 90.234 80.7999 90.234ZM80.1999 92.334C80.5999 92.534 81.1999 93.234 80.6999 93.634C80.4998 93.9341 80.0999 94.234 79.6999 94.034C79.2999 93.9339 78.8999 93.334 79.2999 92.934C79.4999 92.7341 79.7999 92.434 80.1999 92.334Z" fill="#DDFA88"/>
<path d="M101.4 52.734C100.2 52.8338 99.0999 53.634 98.5999 54.734C98.3 55.534 98.4999 56.334 98.3999 57.134C92.9999 61.634 87.3999 66.034 81.8999 70.534C81.4999 71.034 82.1999 71.334 82.3999 71.634C83.9999 73.234 85.6999 74.934 87.5999 76.234C87.8999 76.5341 88.3999 76.5341 88.5999 76.1338C89.9999 74.2339 91.1999 72.2338 92.4999 70.3338C95.0999 66.4339 97.6999 62.6339 100.3 58.7338C101.1 58.6341 101.9 58.834 102.7 58.5339C103.7 57.9339 104.5 56.7339 104.5 55.5339C104.3 54.0339 102.9 52.734 101.4 52.734Z" fill="#DDFA88"/>
<path d="M98.1999 94.734C97.2999 94.9339 96.5999 95.734 95.7999 96.334C95.2999 96.834 94.5999 97.234 94.3999 97.934C94.5999 98.734 95.2999 99.134 95.6999 99.834C96.2999 100.434 96.6999 101.234 97.3999 101.534C98.5999 101.534 99.8999 101.434 101 102.034C102 102.634 103.2 103.434 103.3 104.734C103.3 105.634 102.3 106.034 101.7 106.434C101.2 106.834 101.8 107.334 102.1 107.634C103.6 109.134 104.9 110.834 106.4 112.234C107 112.634 107.5 111.934 107.9 111.634C108.8 110.834 109.9 110.134 110.8 109.134C111.1 108.534 110.4 108.034 110.1 107.534C106.8 103.834 103.5 100.134 100.2 96.434C99.5999 95.834 99.0999 95.134 98.3999 94.734C98.2999 94.734 98.1999 94.734 98.1999 94.734Z" fill="#316C58"/>
<path d="M75.3001 58.534C74.7001 58.8341 74.6001 59.634 74.2001 60.134C72.8001 62.634 72.5001 65.434 72.6001 68.234C72.7001 72.234 73.8001 76.434 76.5001 79.534C79.7001 83.434 84.5001 86.034 89.6001 86.2341C92.1001 86.434 94.8001 86.1339 97.1001 85.034C98.6001 84.434 100.1 83.734 101.3 82.6341C101.6 82.234 101.1 81.734 100.6 81.834C96.7001 81.9342 93.1001 80.334 89.8001 78.334C86.3001 76.334 83.4001 73.434 80.8001 70.334C78.8001 67.834 77.3001 64.934 76.4001 61.834C76.1001 60.834 76.0001 59.734 75.8001 58.734C75.6001 58.6342 75.4001 58.534 75.3001 58.534Z" fill="#DDFA88"/>
<path d="M26.7999 106.134C24.0999 106.234 22.1999 108.434 20.9999 110.634C20.6999 111.034 20.5999 111.834 19.8999 111.634C17.3999 111.834 14.6999 111.534 12.2999 112.634C6.39993 115.034 2.29993 121.134 1.59993 127.334C0.999928 132.434 2.09993 137.934 5.29993 142.034C7.69993 145.234 11.2999 147.834 15.2999 148.534C17.4999 148.834 19.7999 148.734 21.8999 149.134C21.1999 149.834 20.1999 149.834 19.3999 150.134C18.8999 153.034 20.8999 155.734 23.1999 157.334C25.6999 158.934 28.8999 158.934 31.5999 158.034C32.2999 157.834 32.0999 157.034 31.7999 156.534C31.5 155.834 31.0999 154.934 31.1999 154.134C33.0999 156.734 34.7999 159.634 37.4999 161.534C40.3999 163.534 43.6999 164.634 47.0999 165.234C49.5999 165.334 52.0999 165.234 54.5999 164.934C59.5999 163.734 64.0999 160.634 67.0999 156.434C68.6999 154.234 69.1999 151.634 70.2999 149.234C70.3999 149.034 70.7999 148.634 70.6999 149.134C70.8999 150.834 69.9999 152.334 69.9999 154.034C70.2999 154.934 71.4999 154.834 72.1999 155.134C74.9999 155.534 77.8999 155.734 80.6999 154.934C86.4999 153.034 90.9999 147.734 92.2999 141.834C93.3999 137.134 91.7999 132.034 88.6999 128.434C87.0999 126.634 84.9999 125.434 82.9999 124.134C82.7999 122.534 83.9999 121.134 83.8999 119.534C84.0999 116.834 83.1999 114.034 81.0999 112.234C78.3999 109.834 74.1999 109.034 71.0999 111.134C70.6999 111.334 69.8999 112.034 69.6999 111.334C68.9999 109.534 67.6999 107.834 65.8999 107.134C64.3999 106.534 62.6999 106.634 61.0999 107.034C60.4999 107.434 60.8999 108.434 60.8999 109.034C61.2999 111.634 61.6999 114.334 62.2999 116.934C62.6999 117.834 63.6999 117.234 64.2999 117.034C67.3999 116.234 70.7999 116.834 73.5999 118.434C74.7999 119.234 75.5999 120.534 75.6999 121.934C74.2999 120.734 72.8999 119.434 71.0999 118.834C67.9999 117.634 63.9999 117.734 61.4999 120.234C60.3999 121.234 59.9999 122.634 58.8999 123.634C58.1999 123.834 57.6999 122.934 57.1999 122.734C54.9999 121.334 52.1999 120.734 49.6999 121.734C48.0999 122.434 47.0999 124.134 45.8999 125.234C44.3999 124.034 43.0999 122.234 40.9999 122.034C39.1999 121.734 37.2999 122.234 35.8999 123.434C35.4999 123.734 34.6999 124.434 34.3999 123.634C33.6999 121.734 32.4999 120.034 30.9999 118.634C29.4999 117.134 27.4999 116.034 25.2999 116.034C22.2999 115.734 19.4999 117.034 16.7999 118.234C16.2999 118.534 16.5999 118.134 16.7999 117.934C18.4999 116.234 20.8999 115.634 23.0999 115.134C23.8999 114.934 24.8999 115.033 25.5999 114.534C26.2999 111.934 26.9999 109.334 27.4999 106.634C27.4999 106.234 27.0999 106.134 26.7999 106.134ZM59.9999 136.534C61.8999 136.934 63.0999 139.034 62.8999 140.934C62.8999 143.434 61.4999 145.734 59.9999 147.634C57.4999 150.734 53.4999 152.634 49.4999 152.634C45.6999 152.634 41.5999 150.534 40.1999 146.834C39.4999 145.034 39.7999 142.434 41.7999 141.534C43.8999 140.934 45.6999 142.534 47.6999 142.834C50.8999 143.634 54.1999 142.034 56.1999 139.634C57.1999 138.634 57.8999 137.234 59.2999 136.634C59.4999 136.634 59.7999 136.534 59.9999 136.534Z" fill="white"/>
<path d="M56.4999 74.334C56.1999 75.634 56.7 77.034 56.7999 78.334C57.4999 83.634 58.1999 89.034 59.0999 94.334C59.3999 95.034 60.2999 94.4342 60.8999 94.2339C61.7999 93.6339 62.4999 92.6339 62.5999 91.5339C62.5999 91.1339 62.4999 90.6338 62.5999 90.3339C63.7999 90.434 64.9999 91.2339 66.1999 90.8339C69.2999 90.4339 71.4999 87.4339 71.7999 84.4339C72.1 82.1339 71.5999 79.5339 69.7999 77.8339C68.5999 76.4339 66.7999 75.9339 64.9999 76.1338C63.9999 76.234 62.7999 76.5339 62.4999 77.6339C62.3999 78.3339 62.0999 77.934 61.9999 77.5337C61.1999 76.2337 60.2999 74.3337 58.4999 74.2337C57.7999 74.3335 57.0999 74.1341 56.4999 74.334Z" fill="white"/>
<path d="M35.3999 61.334C32.9999 61.4342 30.6999 63.034 30.0999 65.434C29.8999 66.034 29.8999 66.734 29.5999 67.234C28.5999 66.9339 27.6999 66.134 26.6999 66.534C24.7999 67.134 23.6999 69.134 23.9999 71.034C24.0999 71.534 24.1999 72.034 23.5999 71.634C22.9999 71.234 22.2999 70.834 21.4999 70.934C18.8999 70.8338 16.6999 72.834 15.8999 75.234C15.3999 77.434 15.4999 79.934 16.7999 81.834C18.0999 83.634 20.2999 84.834 22.5999 84.634C24.4999 84.7342 26.0999 83.634 27.3999 82.434C27.7999 82.034 27.5999 83.134 27.6999 83.434C27.8999 85.334 30.0999 86.434 31.7999 85.834C33.3999 85.5339 34.1999 83.934 34.4999 82.534C36.2999 76.534 38.0999 70.434 39.7999 64.434C39.5999 63.634 38.7999 63.134 38.2999 62.534C37.4999 61.734 36.4999 61.234 35.3999 61.334Z" fill="white"/>
<path d="M26.8 105.934C24 105.934 21.9 108.334 20.6 110.634C20.4 111.134 19.9 111.634 19.3 111.434C17.2 111.534 15 111.434 13 112.034C6.79999 114.234 2.39998 120.134 1.29999 126.534C0.099985 133.234 2.39998 140.534 7.49998 145.034C9.99999 147.334 13.3 148.934 16.7 149.034C18 149.134 19.4 149.234 20.7 149.334C20.1 149.634 19.2 149.434 18.9 150.134C18.5 153.334 20.6 156.234 23.3 157.734C25.6 159.034 28.6 159.034 31.1 158.334C31.7 158.234 32.4 157.734 32.1 157.034C32 156.534 31.7 156.034 31.5 155.434C33.4 158.134 35.4 160.834 38.3 162.434C40.9 163.934 43.8 164.834 46.7 165.434C50.1 165.234 53.7 165.634 56.9 164.234C61.3 162.534 65.2 159.434 67.6 155.434C68.6 153.634 69.2 151.534 70 149.734C70 151.234 69.3 152.634 69.4 154.134C70 155.134 71.4 155.134 72.5 155.434C75.6 155.734 78.9 155.934 81.8 154.634C87 152.234 91 147.334 92.2 141.834C92.8 138.434 92.4 134.934 90.8 131.834C89.7 129.334 87.7 127.234 85.4 125.734C84.6 125.134 83.7 124.634 82.9 124.034C83.1 122.234 84.1 120.434 83.9 118.534C83.8 115.034 81.5 111.634 78.2 110.434C75.8 109.434 72.9 109.434 70.7 110.834C70.3 110.934 69.7 111.634 69.5 111.034C68.5 108.534 66.1 106.434 63.3 106.534C62.3 106.634 61 106.434 60.3 107.234C59.9 108.334 60.4 109.434 60.5 110.534C60.9 112.734 61.1 115.134 61.9 117.234C62.4 118.134 63.6 117.434 64.3 117.334C66 117.034 67.8 117.034 69.5 117.334C71.3 117.734 73.3 118.334 74.4 120.034C74.6 120.434 74.8 120.834 74.9 121.234C73.2 119.834 71.4 118.534 69.2 118.134C66.1 117.434 62.3 118.034 60.4 120.734C59.7 121.534 59.2 122.634 58.5 123.334C57.5 123.034 56.8 122.134 55.8 121.834C53.3 120.634 49.8 120.434 47.7 122.534C46.9 123.234 46.3 124.134 45.5 124.734C43.9 123.534 42.4 121.634 40.2 121.734C38.7 121.634 37 121.834 35.8 122.834C35.3 123.034 34.8 123.634 34.3 123.634C32.9 120.434 30.4 117.434 27 116.234C23.9 115.334 20.5 116.134 17.6 117.434C19.5 116.234 21.7 115.734 23.9 115.334C24.7 115.334 25.4 114.834 25.6 114.034C26.3 111.634 26.9 109.134 27.3 106.734C27.7 106.034 27.2 105.834 26.8 105.934ZM59.9 136.934C61.6 137.134 62.7 138.934 62.6 140.634C62.8 142.834 61.6 144.734 60.6 146.534C58 150.334 53.4 152.734 48.7 152.334C45.3 152.034 41.8 150.134 40.6 146.834C40 145.234 40.1 143.234 41.5 142.134C42.9 141.334 44.6 142.234 45.9 142.734C48.4 143.734 51.4 143.634 53.7 142.234C55.8 141.034 57.2 138.834 59 137.334C59.3 137.034 59.6 136.934 59.9 136.934Z" fill="white"/>
<g opacity="0.5" style="mix-blend-mode:hard-light">
<path d="M34.5001 159.134C34.2 158.934 33.5001 158.034 32.9001 157.134C31.4001 154.734 31.2001 154.534 31.5001 155.334C31.6001 155.634 31.9001 156.234 32.1001 156.634C32.8001 157.834 32.1001 158.434 29.6001 158.734C26.3001 159.234 22.7001 158.034 20.9001 155.934C19.7001 154.534 18.2985 151.59 18.6985 150.29C18.7985 149.79 19.7001 149.834 20.5001 149.634L21.5001 149.334L20.3001 149.234C19.6001 149.134 18.4001 149.034 17.5001 149.034C16.7001 149.034 15.2001 148.834 14.3001 148.634C13.4001 148.434 12.3001 148.134 11.8001 148.034C10.7001 147.834 9.80007 147.234 9.10007 146.034C7.30007 143.234 7.20007 140.034 8.80005 137.034C11.3 132.134 18.1001 130.634 23.0001 133.734C25.2001 135.134 27 137.934 27.4 140.734L27.6001 142.134L28.2001 142.034C30.2001 141.734 32.5001 143.234 33.1001 145.334C33.3001 145.934 33.4 146.734 33.4 147.034C33.4 147.634 33.4 147.634 34.3 147.634C37.1 147.634 39.3 150.634 39.1 154.334C39 156.434 38.1 157.934 36.4 159.034C35.8 159.534 35.3001 159.534 34.5001 159.134Z" fill="#00482F"/>
</g>
<g opacity="0.5" style="mix-blend-mode:hard-light">
<path d="M73.8999 155.534C71.9999 155.334 69.7999 154.634 69.5999 154.234C69.4999 154.034 69.6999 153.434 69.8999 152.834C70.4999 151.234 70.7999 149.834 70.4999 149.434C70.2999 149.134 70.1998 149.434 69.7999 150.834C69.4999 151.834 69.2999 152.734 69.2999 152.934C69.2999 153.134 69.0998 153.434 68.8999 153.634C67.9999 154.434 65.8999 153.834 64.6999 152.534C62.8999 150.334 63.8999 146.534 66.5999 145.734L67.3999 145.534V144.034C67.3999 142.234 67.9999 140.734 69.1999 139.634C70.6999 138.334 72.1999 137.934 74.4999 138.434C74.7998 138.534 74.8999 138.334 75.0999 137.534C75.7999 135.034 78.3999 132.734 81.6999 131.934C83.9999 131.334 86.2999 131.734 88.2999 133.034C91.4999 135.034 92.6999 138.134 92.1999 142.734C91.7999 146.134 90.6999 148.734 89.3999 149.334C89.0998 149.434 88.1999 150.234 87.3999 151.034C84.6999 153.734 81.6999 155.234 78.1999 155.634C76.3999 155.834 75.9999 155.834 73.8999 155.534Z" fill="#00482F"/>
</g>
<g opacity="0.5" style="mix-blend-mode:hard-light">
<path d="M47.2999 152.234C47.0999 152.034 47.5999 151.734 49.9999 150.934C51.6999 150.334 53.3999 149.634 54.0999 149.234C56.5999 147.634 58.0999 145.434 58.0999 143.534C58.0999 142.134 57.8999 141.634 57.0999 141.334C56.2999 141.034 56.1999 140.534 56.7999 140.134C56.9999 139.934 57.1999 139.634 57.1999 139.334C57.1999 138.834 57.6999 138.134 58.1999 138.134C58.2999 138.134 58.5999 137.934 58.7999 137.734C59.1999 137.234 60.0999 137.234 60.6999 137.634C60.9999 137.834 61.3999 138.434 61.6999 139.034C62.1999 139.934 62.2999 140.334 62.1999 141.734C62.1999 144.534 61.6999 145.334 57.4999 149.134C55.1999 151.234 52.0999 152.434 48.8999 152.534C47.9999 152.534 47.4999 152.434 47.2999 152.234Z" fill="#00482F"/>
</g>
<g opacity="0.5" style="mix-blend-mode:hard-light">
<path d="M87.3 126.434C87.1 126.234 87 125.934 87.1 125.534C87.2 125.134 87.1 125.034 86.5 124.734C86.1 124.534 85.5 124.434 85.2 124.434C84.1 124.434 83.9 123.834 84.6 122.034C84.8 121.534 84.9 120.734 84.9 120.234C84.9 119.034 85.3 118.534 86 118.834C86.6 119.134 86.8 119.934 86.8 121.334L86.7 122.534L87.7 123.034L88.7 123.534L90.5 121.234C96.7 113.534 99.2 110.634 99.7 110.634C99.9 110.634 100.1 110.834 100.2 111.034C100.6 111.734 99.9999 112.634 94.4 119.734C92.4 122.234 90.7 124.634 90.4 125.134C89.9 126.234 89.6 126.534 88.6 126.734C87.9 126.834 87.6 126.734 87.3 126.434Z" fill="#00482F"/>
</g>
<g opacity="0.5" style="mix-blend-mode:hard-light">
<path d="M45.9001 123.334C45.6001 123.234 44.9001 122.834 44.4001 122.434C43.9001 122.034 43.0001 121.534 42.4001 121.334C40.5001 120.734 37.6001 121.034 36.5001 121.834C36.0001 122.234 35.8001 122.234 35.4001 122.034C35.1001 121.934 34.8001 121.534 34.7001 121.234C34.3001 119.534 32.8001 117.634 31.9001 117.634C31.5001 117.634 31.2001 117.434 31.0001 117.134C30.8001 116.834 30.5001 116.634 30.4001 116.634C30.2001 116.634 29.7001 116.234 29.2001 115.834C28.7001 115.334 27.8462 115.659 27.3462 115.459C26.9462 115.359 26.2144 115.377 26.0144 115.177L25.9001 113.534L25.8001 114.134C25.7001 114.634 25.6001 114.734 24.5001 114.834C21.7001 115.134 18.7001 116.234 17.5001 117.434C15.3001 119.534 12.2001 115.834 13.8001 113.034C14.5001 111.834 15.6001 111.334 17.3001 111.434C18.1001 111.434 19.0001 111.534 19.3001 111.534C20.0001 111.634 19.9001 111.634 21.5001 109.034C22.5001 107.434 23.6001 106.534 25.5001 106.034C26.9001 105.634 27.4001 105.734 27.6001 106.234C27.7001 106.434 27.3001 108.034 26.9001 109.834C26.4001 111.634 26.1001 113.134 26.1001 113.234C26.1001 113.334 26.3001 113.234 26.6001 113.034C27.5001 112.434 29.2001 112.934 30.5001 114.034C30.9001 114.334 31.1001 114.434 31.1001 114.334C31.1001 114.234 31.5001 112.734 31.9001 111.034C32.3001 109.334 32.9001 107.534 33.2001 106.834C33.6001 105.834 33.8001 105.634 34.2001 105.734C34.9001 105.835 34.9001 106.734 34.3001 109.734C34.0001 111.134 33.6001 112.934 33.4001 113.834L33.1001 115.534L33.9001 116.334C34.4001 116.734 35.0001 117.534 35.4001 118.134C35.8001 118.734 36.1001 119.134 36.1001 119.134C36.1001 119.134 36.8001 118.834 37.6001 118.434C40.6001 117.034 45.2001 117.634 47.6001 119.734C48.5001 120.534 48.7001 121.434 47.9001 121.734C47.6001 121.835 47.5001 122.035 47.5001 122.334C47.5001 122.635 47.3001 122.934 47.0001 123.134C46.6001 123.534 46.6001 123.534 45.9001 123.334Z" fill="#00482F"/>
</g>
<g opacity="0.5" style="mix-blend-mode:hard-light">
<path d="M57.4999 122.134C57.2999 121.934 56.8999 121.434 56.6999 121.134C56.3999 120.734 55.8999 120.334 55.4999 120.134C54.5999 119.634 52.5999 119.734 51.2999 120.234C50.6999 120.434 49.8999 120.634 49.3999 120.634C48.7999 120.534 48.6999 120.534 48.5999 120.034C48.4999 118.834 50.0999 117.334 52.1999 116.834C53.6999 116.434 54.5999 116.434 55.9999 116.834C57.0999 117.134 57.0999 117.134 57.5999 116.634C58.8999 115.434 60.2999 115.034 61.2999 115.534C61.4999 115.634 61.6999 115.734 61.7999 115.734C61.7999 115.734 61.4999 113.934 61.1999 111.734C60.6999 109.034 60.5999 107.734 60.6999 107.434C61.0999 106.434 64.4999 106.334 66.3999 107.134C67.8999 107.834 68.4999 108.334 69.1999 109.934C69.5999 110.734 69.9999 111.434 69.9999 111.434C69.9999 111.434 70.5999 111.134 71.2999 110.834C73.1999 109.934 74.1999 109.734 76.1999 110.034C78.1999 110.234 78.5999 110.534 79.3999 111.534C80.5999 113.134 81.0999 115.834 80.4999 117.534C80.0999 118.634 78.9999 120.034 77.9999 120.534C76.3999 121.534 74.3999 121.234 74.6999 120.134C74.9999 119.134 71.6999 117.334 68.9999 116.934C67.0999 116.634 65.6999 116.834 63.9999 117.334C63.1999 117.634 62.7999 117.634 62.4999 117.534C62.1999 117.334 61.9999 117.534 61.2999 118.634C60.7999 119.334 60.1999 120.234 59.8999 120.634C59.5999 121.034 59.1999 121.534 58.9999 121.834C58.5999 122.534 57.8999 122.634 57.4999 122.134Z" fill="#00482F"/>
</g>
<g opacity="0.5" style="mix-blend-mode:hard-light">
<path d="M53.8 114.734C53 114.134 52.1 113.334 51.8 113.034C51.5 112.734 49.2 111.034 46.7 109.334C41.3 105.734 39.2 104.134 38.8 103.334C38.4999 102.834 38.4999 102.734 38.8 102.634C39.5 102.334 41.4 103.434 49.3 108.634C51.8 110.234 53.8 111.534 53.9 111.534C53.9 111.534 53.8 110.234 53.6 108.734C53 104.134 53.1 102.834 54.2 103.534C54.8 103.934 55.1 104.834 55.8 108.334C56.8 113.434 57 115.234 56.7 115.634C56.1 116.134 55.3 115.934 53.8 114.734Z" fill="#00482F"/>
</g>
<g opacity="0.5" style="mix-blend-mode:hard-light">
<path d="M105.6 111.734C104.4 110.534 104.4 110.534 104.2 111.034C104 111.634 103.1 111.934 102 111.734C100.8 111.534 100.5 111.234 100.5 110.234C100.5 109.634 100.6 109.334 101 108.934C101.3 108.634 101.7 108.434 101.9 108.434C102.4 108.434 102.4 108.334 101.6 107.434C101 106.734 101 106.534 101.2 106.134C101.3 105.834 101.6 105.634 101.8 105.634C102 105.634 102.3 105.434 102.4 105.334C102.6 105.034 102.7 105.034 103.1 105.234C103.6 105.534 107.9 110.034 108.4 110.934C108.8 111.434 108.7 111.534 108.3 112.034C107.6 112.834 107.3 113.134 107 113.134C107 113.034 106.3 112.434 105.6 111.734Z" fill="#00482F"/>
</g>
<g opacity="0.5" style="mix-blend-mode:hard-light">
<path d="M96.8999 100.934C96.2999 100.234 95.1999 99.234 94.5999 98.534L93.4999 97.334L91.1999 96.834C87.9999 96.134 84.6999 95.334 84.2999 95.034C84.0999 94.9338 83.8999 94.634 83.8999 94.434C83.8999 94.1339 83.8999 94.1339 83.7999 94.434C83.4999 95.134 82.7999 95.934 82.0999 96.334C81.1999 96.834 80.6999 96.834 80.1999 96.4342C79.8999 96.2342 79.8999 96.1341 80.7999 95.5342C82.5999 94.2342 82.7999 92.9341 81.3999 91.0342C80.4999 89.8342 80.4999 89.6342 80.4999 86.2342V83.7342L79.4999 82.8342C78.9999 82.3342 78.5999 81.8342 78.6999 81.7342C78.7999 81.634 79.5999 81.8343 80.4999 82.2341C81.3999 82.6342 82.5999 83.0341 83.1999 83.2342C84.5999 83.6341 87.1999 83.6341 88.4999 83.2342C90.1999 82.7341 93.7999 80.3341 93.0999 80.1342C92.9999 80.034 92.5999 79.8341 92.3999 79.6342C92.0999 79.4342 91.2999 78.8342 90.4999 78.3342C88.3999 77.1342 88.3999 77.0342 90.6999 73.5342C92.3999 70.9342 92.2999 70.9342 89.9999 74.0342C88.1999 76.3342 87.8999 76.6342 87.4999 76.6342C87.0999 76.6342 86.4999 76.1341 86.4999 75.6342C86.4999 75.4342 85.6999 74.5342 84.7999 73.6342C83.8999 72.7342 82.8999 71.6342 82.5999 71.1342C82.2999 70.6342 81.9999 70.3342 81.8999 70.3342C81.7999 70.4343 81.4999 70.3341 81.2999 70.234C80.8999 70.034 79.1999 67.434 78.2999 65.834C77.9999 65.234 77.5999 64.534 77.3999 64.134C76.7999 63.034 76.7999 61.734 77.1999 61.234C78.3999 59.934 82.0999 60.634 85.8999 62.834C88.2999 64.234 88.7999 65.034 87.8999 65.634C87.6999 65.7342 87.2999 66.034 87.0999 66.234C86.8999 66.4339 85.8999 67.234 84.9999 67.934C83.5999 69.034 83.3999 69.334 83.6999 69.434C83.8999 69.5338 84.3999 69.934 84.7999 70.434C85.1999 70.934 85.9999 71.634 86.5999 72.134C87.4999 72.834 87.6999 72.934 87.9999 72.734C89.5999 71.034 100.5 57.034 100.5 56.734C100.5 56.134 101.5 55.334 102.3 55.334C103.4 55.334 104.1 56.134 104.1 57.234C104.1 58.034 104 58.134 103.4 58.634C102.8 59.034 102.5 59.134 101.9 59.034C101.2 58.9339 101.1 58.9339 100.7 59.834C100.2 60.834 98.2999 63.534 95.5999 67.034L93.6999 69.534L94.5999 70.434C97.5999 73.734 98.9999 77.434 97.7999 79.734C97.2999 80.634 96.8999 80.934 95.9999 80.934C95.4999 80.934 95.3999 81.0342 95.4999 81.2341C95.6999 81.6341 96.2999 81.8341 98.7999 81.9341C99.9999 81.9341 101.1 82.0343 101.2 82.0343C101.3 82.0343 101.5 82.2342 101.6 82.5343C102 83.5342 101.4 84.0343 98.6999 85.1342C94.3999 86.7343 94.7999 86.6343 90.4999 86.7343C87.0999 86.8344 86.4999 86.8344 85.9999 86.5343C85.6999 86.3344 85.4999 86.0343 85.4999 85.9343C85.4999 85.7344 82.8999 84.9343 82.6999 85.0343C82.6999 85.0343 82.6999 85.7343 82.8999 86.5343C83.0999 88.1343 82.9999 88.8343 82.4999 89.5343L82.0999 90.0343L82.6999 90.3344C83.5999 90.7344 84.2999 92.0344 84.2999 93.4344C84.2999 94.4344 84.2999 94.5344 84.7999 94.3344C85.0999 94.2342 86.0999 94.3344 87.0999 94.5343C94.7999 95.8343 96.0999 96.1343 95.9999 96.6343C95.9999 96.7345 96.7999 97.7343 97.8999 98.9343C99.8999 101.034 100.3 101.734 99.7999 102.234C98.7999 102.434 98.0999 102.134 96.8999 100.934Z" fill="#00482F"/>
</g>
<g opacity="0.5" style="mix-blend-mode:hard-light">
<path d="M92.7999 70.634C92.9103 70.634 92.9999 70.5445 92.9999 70.434C92.9999 70.3236 92.9103 70.234 92.7999 70.234C92.6894 70.234 92.5999 70.3236 92.5999 70.434C92.5999 70.5445 92.6894 70.634 92.7999 70.634Z" fill="#00482F"/>
</g>
<g opacity="0.5" style="mix-blend-mode:hard-light">
<path d="M42.7001 97.834C41.9001 97.634 41.5001 97.134 42.0001 96.634C42.4001 96.234 44.1001 95.934 48.1001 95.834L51.4001 95.7339V91.5339C51.4001 88.4339 51.4001 87.1338 51.6001 86.8339C51.9001 86.2339 52.4001 86.2339 52.7001 86.7337C53.0001 87.2337 53.3001 90.0337 53.4001 93.3337C53.5001 94.7337 53.6001 96.0337 53.7001 96.2337C54.0001 96.7337 53.7001 97.4337 53.1001 97.6337C52.5001 97.7335 43.6001 98.034 42.7001 97.834Z" fill="#00482F"/>
</g>
<g opacity="0.5" style="mix-blend-mode:hard-light">
<path d="M35.8999 95.734C35.6999 95.5341 35.5999 95.234 35.5999 95.034C35.5999 94.534 38.7998 83.934 39.3998 82.734C39.6999 82.134 39.9999 81.534 40.1999 81.334C40.6999 80.934 41.2998 81.1341 41.2998 81.6341C41.2998 81.8341 40.9998 83.6341 40.4998 85.6342C39.9998 87.6341 39.6999 89.3341 39.6999 89.5342C39.6999 89.8342 39.8999 89.6343 43.2998 86.8342C44.6999 85.6342 46.7998 83.9341 47.8998 83.0341C50.0998 81.3341 50.8999 81.1341 50.8999 82.0342C50.8999 82.7341 49.5998 84.0341 46.0998 87.1341C44.4998 88.5341 43.1999 89.7341 43.0999 89.9341C42.8998 90.4341 37.0999 96.1341 36.6998 96.1341C36.3999 96.1341 36.0999 95.9341 35.8999 95.734Z" fill="#00482F"/>
</g>
<g opacity="0.5" style="mix-blend-mode:hard-light">
<path d="M59.1999 94.634C58.8999 94.4341 58.6999 93.234 58.1999 89.934C57.7999 86.834 57.4999 85.434 57.2999 85.334C56.7999 85.0339 56.9999 84.034 57.4999 83.334C58.1999 82.434 58.9999 82.034 60.0999 82.034C61.7999 82.034 62.8999 82.634 63.5999 84.134C63.9999 85.034 64.0999 85.134 64.5999 84.934C65.9999 84.434 67.7999 85.734 68.1999 87.534C68.4999 88.534 68.2999 89.434 67.7999 90.334C67.1999 91.334 66.4999 91.534 64.7999 91.134C63.9999 90.9341 63.1999 90.734 62.9999 90.634C62.6999 90.5338 62.6999 90.634 62.6999 91.434C62.6999 92.734 61.7999 94.134 60.6999 94.634C59.7999 94.9341 59.5999 94.9341 59.1999 94.634Z" fill="#00482F"/>
</g>
<g opacity="0.5" style="mix-blend-mode:hard-light">
<path d="M29.5999 85.934C28.4999 85.6339 27.5999 84.634 27.5999 83.834C27.5999 82.934 27.2999 82.734 26.8999 83.234C26.6999 83.434 25.9999 83.934 25.4999 84.234C24.5999 84.634 24.1999 84.734 22.5999 84.734C19.6999 84.734 18.4999 83.934 18.1999 81.834C17.8999 78.934 20.7999 76.634 23.4999 77.734C23.6999 77.8342 23.8999 77.6338 24.1999 77.134C24.6999 76.134 25.6999 75.434 26.8999 75.434C27.6999 75.434 27.7999 75.434 27.8999 74.734C28.5999 71.234 33.8999 69.634 36.1999 72.234C37.2999 73.534 37.2999 73.734 35.3999 80.334C34.6999 82.834 34.0999 84.534 33.7999 84.834C33.2999 85.334 32.0999 86.034 31.0999 86.134C30.7999 86.134 30.0999 86.134 29.5999 85.934Z" fill="#00482F"/>
</g>
<g opacity="0.5" style="mix-blend-mode:hard-light">
<path d="M40.9 77.534C40.6001 77.134 40.8 75.834 41.7 72.9341C42.4 70.834 42.9 70.0341 43.5 70.434C43.9 70.7341 43.9 71.634 43.5 73.6341C43.3 74.534 43.2001 75.234 43.2001 75.334C43.2001 75.334 44.7001 75.534 46.5001 75.6341C48.6001 75.7343 49.8001 75.9342 50.0001 76.1341C50.4001 76.4342 50.4001 77.2342 50.1001 77.5342C49.8001 77.8342 47.5001 77.8342 44.5001 77.6343C43.1001 77.5341 42.6001 77.5342 42.4001 77.7345C42.0001 77.9344 41.2 77.9339 40.9 77.534Z" fill="#00482F"/>
</g>
<g opacity="0.5" style="mix-blend-mode:hard-light">
<path d="M47.7999 69.234C46.7999 68.134 45.6999 66.934 45.4999 66.434C44.9999 65.634 45.0999 65.034 45.5999 65.034C45.8999 65.034 48.2999 67.134 48.6999 67.634C48.8999 67.9341 48.8999 67.634 48.9999 66.534C49.0999 65.134 49.0999 65.134 49.5999 65.134C50.0999 65.134 50.0999 65.2342 50.3999 66.234C50.7999 68.234 50.9999 70.434 50.7999 70.834C50.3999 71.634 49.6999 71.234 47.7999 69.234Z" fill="#00482F"/>
</g>
<g opacity="0.5" style="mix-blend-mode:hard-light">
<path d="M46.6001 60.534C45.8001 60.3341 45.5001 59.534 46.0001 59.134C46.2001 58.9341 46.7001 58.8339 47.2001 58.734L48.0001 58.6342V55.6342C48.0001 53.9343 48.0001 52.5342 48.1001 52.3342C48.6001 51.6342 49.0001 53.3343 49.2001 57.3342C49.4001 59.9342 49.4001 60.2342 49.1001 60.4342C48.6001 60.8342 47.5001 60.8342 46.6001 60.534Z" fill="#00482F"/>
</g>
<g opacity="0.5" style="mix-blend-mode:hard-light">
<path d="M47.6001 31.734C46.5001 30.634 47.2001 28.934 48.7001 28.934C49.1001 28.934 49.5001 29.1339 49.8001 29.334C50.8001 30.334 50.1001 32.234 48.7001 32.234C48.2001 32.1339 47.8001 32.0341 47.6001 31.734Z" fill="#00482F"/>
</g>
<path d="M83.9 124.134C83.4 124.034 83.0999 123.134 83.3 122.434C83.4 122.134 83.7999 121.434 84.0999 120.934C84.6999 120.034 85.9999 118.734 85.9999 119.034C85.9999 119.134 86.7999 118.234 87.7999 117.134C93.0999 111.134 95.7 108.634 96.7 108.634C97.2 108.634 97.2 108.634 96.8 109.534C96.4 110.434 95.6 111.334 91.4 116.134C89.4 118.434 87.2 121.034 86.5 122.034C85.2 123.734 84.7 124.334 84.4 124.234C84.2999 124.234 84.1 124.234 83.9 124.134Z" fill="white"/>
<path d="M108.5 108.434C106.9 106.734 100.3 99.134 98.6999 97.1339C97.2999 95.3339 96.9999 94.834 97.4999 94.334C98.1999 93.634 99.0999 94.5339 104.5 100.834C106.2 102.834 108.3 105.134 109.1 106.034C111.3 108.334 111.3 108.534 110.9 109.134C110.5 110.034 109.9 109.834 108.5 108.434Z" fill="white"/>
<path d="M95.6 107.234C95 106.034 95.3001 104.134 96.5 102.834C97.9 101.334 99.2 101.034 100.2 101.934C100.8 102.534 100.6 102.934 99.4 103.334C98.3 103.634 97.4 104.734 97.3 105.934C97.2 106.434 97.1 107.134 97.0001 107.334C96.6001 108.034 95.9 108.034 95.6 107.234Z" fill="white"/>
<path d="M97.2001 83.434C96.0001 83.234 93.3001 82.534 91.9001 81.934C85.7001 79.434 79.4001 73.634 76.4001 67.534C75.7001 66.234 75.5001 65.834 75.2001 65.934C74.7001 66.0342 74.5001 66.934 74.5001 69.634C74.5001 72.034 75.1001 74.634 76.2001 77.334C77.3001 79.734 77.3001 80.134 76.8001 80.134C76.2001 80.134 74.7001 78.334 74.0001 76.734C72.8001 74.134 72.6001 73.034 72.6001 67.634V62.834L73.5001 60.934C74.0001 59.934 74.5001 58.934 74.7001 58.734C75.1001 58.234 75.8001 58.234 76.3001 58.734C76.7001 59.134 76.8001 60.834 76.4001 61.434C76.2001 61.7341 76.3001 62.134 76.8001 63.434C80.4001 72.234 86.3001 77.534 95.5001 80.534C97.4001 81.134 98.5001 81.434 99.9001 81.534C101.5 81.6341 101.7 81.7339 102 82.134C102.3 82.534 102.3 82.634 102 83.134C101.7 83.634 101.6 83.634 99.8001 83.634C98.7001 83.5338 97.5001 83.5338 97.2001 83.434Z" fill="white"/>
<path d="M102.7 79.234C102.7 77.8341 102.6 77.034 102.3 76.234C101.3 73.334 99.5 70.234 97.3 67.6341C96.6 66.834 96 65.934 96 65.734C96 65.234 96.5 64.634 97 64.634C98 64.634 102 70.034 103.2 73.034C104.2 75.334 104.6 77.534 104.3 79.0341C104.1 80.134 103.4 81.134 102.9 81.134C102.8 81.134 102.7 80.634 102.7 79.234Z" fill="white"/>
<path d="M82.1999 71.634C81.5999 71.034 81.9999 70.234 83.1999 69.434C83.7999 69.034 84.7999 68.234 85.4999 67.534C86.1999 66.834 87.8999 65.334 89.3999 64.134C90.8999 62.934 91.8999 61.934 91.7999 61.934C91.6999 61.934 90.6999 61.434 89.5999 60.834C86.4999 58.934 83.4999 57.734 80.5999 57.134C78.6999 56.734 78.0999 56.734 77.1999 57.3339C76.4999 57.7339 76.3999 57.7339 76.1999 57.5339C75.8999 57.0339 75.9999 56.6339 76.8999 55.7339C77.5999 55.0339 77.9999 54.8339 78.7999 54.7339C80.8999 54.4338 83.7999 55.3339 88.0999 57.6339C90.6999 59.0339 92.4999 60.3339 92.4999 60.9339C92.4999 61.5339 92.9999 61.3339 94.7999 59.8339C97.7999 57.3339 98.8999 56.7339 98.1999 58.1339C97.9999 58.434 95.3999 61.1339 92.2999 64.0339C89.1999 67.0339 85.9999 70.0339 85.1999 70.8339C83.4999 72.2339 82.7999 72.434 82.1999 71.634Z" fill="white"/>
<path d="M48.6001 26.934C48.2001 26.534 48.3001 25.534 48.8001 25.334C49.7001 24.834 50.9001 26.134 50.2001 26.934C49.9001 27.334 48.9001 27.334 48.6001 26.934Z" fill="white"/>
<path d="M48.8008 24.4465C47.1758 24.4351 45.5508 25.334 44.8008 27.134C43.9008 29.134 45.0004 31.834 46.9004 32.634L47.5 32.8351L46.8008 35.1339C45.7008 39.0339 42.4992 51.335 41.1992 56.835C40.5992 59.735 40.0004 62.2351 39.9004 62.335C39.9004 62.4352 39.5992 62.335 39.1992 61.835C37.0992 59.435 33.0004 59.7347 30.4004 62.4346C29.5004 63.4347 29.2008 63.9339 28.8008 65.1339C28.7008 65.434 28.6004 65.4351 27.9004 65.3349C26.8004 65.135 25.4004 65.5345 24.4004 66.4345C23.5004 67.2345 22.8008 68.5349 22.8008 69.3349C22.8008 69.8349 22.7008 69.8349 21.3008 69.8349C19.5008 69.8349 18.0992 70.4349 16.6992 71.8349C15.0992 73.5349 14.3 75.8349 14.5 78.3349C14.9 82.9349 18 85.7333 22.5 85.7333C24 85.6332 25.2992 85.3334 26.1992 84.7334C26.7992 84.3334 26.7992 84.3338 27.1992 85.1338C27.9992 86.6338 30.1 87.3349 32 86.8349L33 86.5341L32.5996 87.9345C32.3996 88.7344 32.1004 89.8341 31.9004 90.5341C31.5004 92.0341 30.4008 95.8333 29.3008 99.2333C28.9008 100.633 28.2996 102.433 28.0996 103.233L27.6992 104.733L26.4004 104.835C23.7004 105.135 21.3992 106.835 20.1992 109.435L19.5996 110.733L18.6992 110.534C17.1992 110.234 14.7996 110.335 13.0996 110.835C7.09961 112.435 2.3 117.734 0.500004 124.534C2.81597e-06 126.434 0 126.934 0 130.134C0 133.234 2.81597e-06 133.834 0.500004 135.634C1.90001 140.634 4.70078 144.735 8.80078 147.435C11.3105 149.392 14.5833 150.029 17 150.034H18V151.234C18 151.934 18.0992 152.834 18.1992 153.234C18.4538 154.199 18.8127 155.026 19.3008 155.835C19.8594 156.761 21.6008 158.235 22.8008 158.835C25.3008 160.135 28.5008 160.335 31.3008 159.435L32.6992 158.935L34 160.335C36.4 162.935 39.9008 164.935 43.8008 165.935C50.5008 167.635 57.3008 166.534 62.3008 163.034C63.2975 162.425 65.6992 160.034 65.6992 160.034C67.3992 158.334 68.3008 157.234 68.8008 156.134C69.0008 155.734 69.1992 155.333 69.1992 155.333C69.1992 155.333 69.8 155.533 70.5 155.833C73.194 156.997 75.5532 157.201 78.0996 157.034C83.5996 156.434 89.2008 152.135 91.8008 146.735C93.1008 143.935 93.5996 141.934 93.5996 139.134C93.5996 135.534 92.6996 132.635 90.5996 129.435C89.6996 128.035 89.6008 127.835 89.8008 127.435C90.1008 126.935 91.3008 125.236 96.3008 118.236C97.9008 116.036 99.2996 113.835 99.5996 113.435L100.1 112.735L101.4 112.835C102.4 112.835 102.999 112.834 103.699 112.534L104.699 112.136L105.199 112.735C106.199 113.935 106.399 113.934 108.199 112.534C110.299 110.934 112 109.335 112 108.935C112 108.735 111.199 107.735 110.199 106.735C109.199 105.735 106.8 103.033 104.9 100.833C102.9 98.6331 100.599 96.1333 99.6992 95.2334C98.2992 93.7334 98 93.6334 97.5 93.7334C97.2 93.8336 95.3004 93.6329 93.4004 93.333C84.4004 91.933 84.6004 92.0338 84.4004 91.6338C84.3004 91.4339 83.8996 90.9338 83.5996 90.6338C83.0996 90.0338 83.0004 89.8342 82.9004 88.0342L82.8008 86.0341L83.3008 86.1339C86.9008 87.1339 86.8992 87.1339 90.1992 87.1339C92.9992 87.1339 93.6996 87.0338 95.0996 86.6339C98.4996 85.6339 101.501 83.834 103.301 81.6339C104.201 80.4339 104.4 80.1331 104.6 78.8331C105.2 75.2331 103.1 70.4347 98.0996 64.4347L97.5996 63.7335L99 61.6339L100.4 59.5343H101.301C104.001 59.4342 105.799 55.9343 104.199 53.5343C102.099 50.3344 97.0996 51.9335 97.0996 55.7335V56.7336L95.3008 58.2335C94.3008 59.0336 93.4008 59.8351 93.3008 59.8351C93.2008 59.8351 92.3004 59.3335 91.4004 58.7336C89.3004 57.3336 86.9992 56.2336 84.1992 55.2336C82.4992 54.5336 81.7 54.4331 80 54.3331C77.7 54.233 77.3008 54.3347 75.8008 55.4347C74.4008 56.5347 72.2 60.5335 71.5 63.2336C71 65.0336 71 69.1339 71.5 71.6339C72.3 75.7339 73.6 78.4347 76.5 81.4347L77.5996 82.634L77.4004 86.5343C77.2004 89.8344 77.0992 90.6332 76.6992 91.3332C76.3992 91.9332 76.3008 92.6332 76.3008 93.3332C76.3008 96.9332 80.7992 98.734 83.1992 96.134L83.6992 95.6339L87.8008 96.6339C93.5008 98.1339 93.0992 97.8331 94.6992 99.8332C95.4992 100.733 96.1992 101.634 96.1992 101.734C96.1992 101.834 96.1004 102.034 95.9004 102.134C95.8004 102.234 95.3996 102.734 95.0996 103.234C94.3996 104.434 94.3996 106.035 95.0996 107.435L95.5996 108.435L94.6992 109.234C94.1992 109.634 91.8996 111.735 89.5996 113.835C87.2996 115.935 85.3008 117.634 85.3008 117.634C85.2008 117.634 85.1004 117.033 84.9004 116.333C84.5004 114.433 83.7008 113.034 82.3008 111.634C80.8008 110.134 79.0008 109.234 76.8008 108.734C74.9008 108.334 73.2004 108.533 71.4004 109.333L70.3008 109.833L70 109.234C69.5 108.134 68 106.734 67 106.234C65.2 105.334 62.2996 105.234 61.0996 106.034C60.7996 106.234 60.5 106.335 60.5 106.335C60.5 106.235 59.1992 96.034 59.1992 95.6341C59.1992 95.5339 59.3992 95.4349 59.6992 95.4349C60.8992 95.4349 62.3008 94.1337 62.8008 92.7337C63.1008 91.7337 63.2008 91.7349 63.8008 91.9349C66.3008 92.6349 69.5992 91.2337 71.1992 88.7337C72.2992 87.0337 72.8008 85.3344 72.8008 83.0344C72.8008 80.0344 71.9996 78.1349 70.0996 76.4349C68.1996 74.7349 65.4008 74.2353 63.3008 75.3353C62.5008 75.7353 62.1996 75.834 62.0996 75.6342C62.0996 75.5341 61.5996 74.935 61.0996 74.435C59.8996 73.235 58.8008 72.9339 57.3008 73.2339C56.7008 73.4338 56.1996 73.4353 56.0996 73.3355C55.9996 73.2353 55.8008 72.0359 54.8008 63.2359C54.4008 59.8359 53.8996 55.5348 53.5996 53.5348C53.3996 51.6348 52.8004 47.6359 52.4004 44.7359C51.6004 39.1359 50.7004 34.1355 50.4004 33.3355C50.3004 32.9355 50.3008 32.8348 50.8008 32.5348C52.6008 31.6348 53.6008 29.1359 52.8008 27.2359C52.0508 25.3859 50.4258 24.459 48.8008 24.4465ZM48.9492 25.4719C49.7492 25.4605 50.5492 25.7848 51.1992 26.4348C52.6992 27.9348 52.3992 30.2332 50.6992 31.3332C49.8992 31.8332 48.2004 31.8332 47.4004 31.3332C46.2004 30.6332 45.8004 29.734 45.9004 28.634C46.0004 27.834 46.0992 27.2344 46.6992 26.5344C47.3492 25.8344 48.1492 25.4844 48.9492 25.4719ZM49.0996 32.9347C49.5996 32.9347 49.6992 33.0345 49.6992 33.4347C49.6992 34.0347 51.9992 51.0332 52.6992 55.3332C52.9992 57.1332 53.3996 60.434 53.5996 62.634C54.2996 68.634 54.8 73.0332 55.5 77.3332C55.8 79.4332 56.1992 81.5347 56.1992 81.9348C56.1992 82.3348 56.6996 85.334 57.0996 88.634C57.4996 91.934 58.1008 96.3348 58.3008 98.4347C59.0008 104.135 60.1 111.734 61 116.134L61.4004 118.034L60.8008 118.534C60.5008 118.834 59.9004 119.534 59.4004 120.234C59.0004 120.934 58.4992 121.435 58.1992 121.435C58.0992 121.435 57.8996 121.234 57.5996 121.034C56.1996 119.834 52.5008 119.335 50.3008 119.935L49.0996 120.234L46.5996 117.634C45.2996 116.134 43.5008 114.334 42.8008 113.634C42.1008 112.934 39.9004 110.634 37.9004 108.634C35.9004 106.634 34.1004 104.834 33.9004 104.734C33.1004 104.334 32.8992 104.834 30.1992 114.234C29.7992 115.534 29.7004 115.734 29.4004 115.634C29.2004 115.534 28.5008 115.234 27.8008 115.034C27.1008 114.734 26.5 114.534 26.5 114.534C26.4 114.435 28.9008 105.235 30.3008 100.435C31.2008 97.6349 32.1992 94.0349 32.6992 92.4349C33.8992 88.2349 38.0008 73.9337 39.3008 69.2337C40.0008 67.0337 41.1004 62.7341 41.9004 59.6341C42.7004 56.5341 43.8004 52.3337 44.4004 50.2337C45.9004 44.6337 48.0008 36.1349 48.3008 34.4349C48.5008 33.0349 48.4996 32.9347 49.0996 32.9347ZM101.588 53.1457C102.15 53.157 102.699 53.3849 103.199 53.8351C104.399 54.9351 104.4 56.6332 103.1 57.8332C102.6 58.3332 102.301 58.4348 101.301 58.4348H100.1L96.0996 64.3332C93.8996 67.5332 91.2992 71.534 90.1992 73.134C89.1992 74.634 88.3008 76.034 88.3008 76.134C88.0008 76.134 85.2 73.7344 83.5 72.0344L82.1992 70.7336L82.6992 70.3332C82.8992 70.1333 85.9008 67.7343 89.3008 65.0343C92.6008 62.3343 96.1996 59.5336 97.0996 58.7336L98.8008 57.3332V56.2336C98.8008 54.9336 99.0004 54.4336 99.9004 53.7336C100.45 53.3336 101.025 53.1332 101.588 53.1457ZM79.0742 55.3957C79.3992 55.3844 79.8004 55.4342 80.4004 55.5344C82.3004 55.9344 85.8004 57.034 87.9004 58.134C89.7004 59.034 92.4004 60.7348 92.4004 60.9348C92.4004 61.035 91.0004 62.1348 89.4004 63.4348C87.7004 64.7347 85.3 66.7333 84 67.8333C82.7 68.8333 81.6996 69.6336 81.5996 69.7336C81.2996 69.8338 79.2004 66.434 78.4004 64.634C77.1004 61.934 76.6992 60.434 76.6992 58.634C76.6992 56.834 76.9992 56.134 78.1992 55.634C78.4992 55.484 78.7492 55.4082 79.0742 55.3957ZM75.3008 58.5344L75.4004 59.8332C75.7004 62.3332 77.2008 65.834 79.3008 69.134C80.8008 71.534 84.6992 75.4336 87.1992 77.2336C91.5992 80.3335 95.9996 82.1336 99.5996 82.2336H101.199L100.5 82.8332C99.5 83.6332 97.4004 84.7332 95.4004 85.3332C94.1004 85.7332 93.2 85.9332 91.5 85.8332C86.7 85.9334 83.0004 84.7348 79.4004 81.9348C75.1004 78.5347 73.1008 74.234 72.8008 68.134C72.7008 64.534 73.2004 62.1336 74.9004 59.2336L75.3008 58.5344ZM35.7226 61.7063C36.9508 61.7531 37.9254 62.3345 38.9004 63.5344L39.5 64.2336L39.0996 65.634C38.7996 66.934 36.1 76.234 34.5 81.634C33.8 84.134 33.3992 84.7332 32.1992 85.3332C30.0992 86.3332 27.8008 84.9333 27.8008 82.8332C27.8008 82.3332 27.7992 81.8336 27.6992 81.7336C27.5992 81.6334 27.0996 81.9347 26.5996 82.4348C25.0996 83.9348 24.0992 84.3332 22.1992 84.3332C20.1992 84.3332 19.0992 83.9339 17.6992 82.634C16.2992 81.334 15.8008 80.0344 15.8008 77.5344C15.8008 75.8344 15.9008 75.3344 16.3008 74.5344C17.3008 72.4344 19.0992 71.2336 21.1992 71.2336C22.2992 71.2336 22.6 71.3334 23 71.7336C23.5 72.1336 24.4004 72.3343 24.4004 72.0344C24.4004 71.9343 24.2992 71.5344 24.1992 71.0344C23.5992 68.3344 26.6996 65.7337 28.5996 67.2337C29.1996 67.6337 29.7004 67.7349 29.9004 67.4347C30.0004 67.3346 30.0992 66.6343 30.1992 66.0343C30.4992 63.9343 32.1003 62.3332 34.4003 61.8332C34.8753 61.733 35.3133 61.6908 35.7226 61.7063ZM97 65.2336C97.3 65.1334 99.1996 67.434 100.6 69.6339C103.2 73.7339 104.201 77.2336 103.301 79.2336C103.001 79.9336 102.699 80.3344 102.199 80.5344C101.199 81.0344 98.6992 81.0349 96.6992 80.4346C95.2992 80.0346 90.3004 77.7342 89.4004 77.0342C89.1004 76.7341 89.3004 76.3342 92.9004 71.0342C95.0004 67.8342 96.9 65.2336 97 65.2336ZM57.9004 74.5597C58.4754 74.5862 59.1004 74.6852 59.4004 74.8353C60.2004 75.3353 60.8 75.9349 61.5 77.4349C62 78.5349 62.2004 78.7345 62.4004 78.5345C62.5004 78.4347 62.6992 78.0337 62.6992 77.7337C62.7992 77.0337 63.7 76.6345 65.5 76.5345C67.4 76.4343 68.5007 76.8334 69.8007 78.3333C71.9007 80.5333 72.1 84.4349 70.5 87.4349C69.1 90.0348 66.2004 91.3333 63.9004 90.3333C63.1004 90.0332 62.2996 89.934 62.0996 90.1341C61.9996 90.2343 62.0992 90.5349 62.1992 90.9349C62.2992 91.4349 62.3004 91.7345 61.9004 92.5345C61.7004 93.1345 61.3 93.6353 61 93.8353C60.7 93.9355 60.3 94.1343 60 94.1343L59.4004 94.3353L58 84.6342C57.2 79.3342 56.5992 74.8338 56.6992 74.7338C56.7992 74.5838 57.3254 74.5348 57.9004 74.5597ZM79.4004 83.7336C79.7004 83.7336 81.4992 85.0332 81.6992 85.3332C81.7992 85.5332 81.9 86.4347 82 87.4347L82.0996 89.2336H81.0996C80.5996 89.2336 79.8 89.3352 79.5 89.3352L78.8007 89.5344L78.9003 88.2336C79.0003 87.5336 79.0992 86.2333 79.1991 85.3333C79.1991 84.4333 79.3004 83.7336 79.4004 83.7336ZM80.8008 90.634C82.5008 90.634 83.5 91.6336 83.5 93.2336C83.5 94.1336 82.9 95.2336 82 95.7336C80.7 96.5336 79.0992 96.0344 78.1992 94.5343C77.2992 92.7343 78.7008 90.634 80.8008 90.634ZM85.0996 92.9348C85.0996 92.9348 86.6 93.1347 88.5 93.4347C90.4 93.7348 92.8992 94.1336 94.1992 94.2336L96.5 94.5345L95.0996 95.7337C94.2996 96.4337 93.5008 96.9333 93.3008 96.8333C93.1008 96.8333 91.1004 96.3337 88.9004 95.7337L84.8008 94.634L84.9004 93.8333C85.0004 93.3333 85.0996 92.9348 85.0996 92.9348ZM98.3008 94.9347C98.5008 95.0349 100.2 96.8348 102 98.9348C103.8 101.035 106.5 104.134 108 105.734C110.2 108.134 110.6 108.735 110.4 108.935C110.3 109.135 109.499 109.735 108.699 110.435C107.899 111.135 107.1 111.734 106.9 111.734C106.6 112.034 106.4 111.833 105.1 110.333C104.3 109.433 103.1 108.234 102.6 107.634L101.6 106.634L102.301 106.333C102.701 106.133 103.2 105.735 103.4 105.435C104.6 103.735 101.4 100.834 98.5996 101.034L97.4004 101.134L96 99.5345C95.2 98.6345 94.5996 97.8336 94.5996 97.7336C94.5996 97.6339 95.4008 96.9341 96.3008 96.1341C97.6008 95.1341 98.0008 94.8347 98.3008 94.9347ZM98.8008 102.134C99.6008 102.134 100.8 102.633 101.5 103.333C102.9 104.533 102.6 105.035 100.4 105.435C99.1004 105.735 99 106.034 100 106.534C100.7 106.834 101.5 107.734 103.5 110.134C103.9 110.534 103.901 110.835 103.801 110.935C103.401 111.335 101.7 111.434 100.5 111.134C99.2 110.834 99.0004 110.934 99.4004 111.534C99.6004 111.934 99.5996 112.034 99.0996 112.534C98.4996 113.134 91.6 122.535 90 124.935C89.4 125.835 88.9004 126.533 88.9004 126.333C88.9004 126.333 88.2 125.933 87.5 125.333C86.8 124.733 85.8004 124.133 85.4004 123.833C84.9004 123.533 84.5992 123.234 84.6992 123.034C84.7992 122.534 85.4 120.535 85.5 119.935C85.6 119.535 87.0004 118.035 90.4004 114.935C93.0004 112.435 95.6 110.134 96 109.634C96.5 109.234 96.9992 108.833 97.1992 108.833C97.7992 108.833 97.7992 108.434 97.1992 107.734C96.2992 106.834 96.0996 106.334 96.0996 105.234C96.0996 104.534 96.1996 104.034 96.5996 103.534C97.0996 102.834 98.2008 102.134 98.8008 102.134ZM33.6992 106.234C33.7992 106.034 38.9992 111.335 46.1992 118.935C48.1992 121.035 48.1992 121.033 47.6992 121.333L46.6992 122.333L46.0996 123.134L45.1992 122.234C44.7992 121.734 43.7992 121.034 43.1992 120.734C42.1992 120.334 41.8 120.234 40 120.234C38.1 120.234 37.7996 120.335 36.5996 120.935C35.8996 121.335 35.1992 121.535 35.1992 121.435C34.9992 120.735 33.3008 118.534 32.3008 117.534L31.0996 116.333L31.4004 115.435C31.9004 113.535 33.1008 109.133 33.3008 107.833C33.5008 107.133 33.5992 106.334 33.6992 106.234ZM26.3008 106.534H26.9004L25.9004 110.435C25.4004 112.635 24.9004 114.335 24.9004 114.435C24.9004 114.535 24.2008 114.733 23.3008 114.833C20.2008 115.233 16.9 116.734 16 118.034C15.4 119.034 15.8996 119.034 17.5996 118.134C21.1996 116.234 25.3 115.834 28 117.134C30.4 118.234 32.7 120.735 33.5 123.035C34 124.435 34.5008 124.735 35.3008 124.035C37.2008 122.435 38.4 122.034 40.5 122.234C42 122.434 43.0004 122.935 44.4004 124.435C45.3004 125.335 45.7004 125.635 45.9004 125.535C46.0004 125.434 46.5996 124.834 47.0996 124.134C48.6996 122.034 50.7008 121.234 53.3008 121.634C55.0008 121.934 56.6 122.635 57.5 123.535C58.6 124.535 59.2992 124.235 60.1992 122.435C61.6992 119.435 64.4992 118.135 68.1992 118.535C70.7992 118.835 72.8008 119.834 74.8008 121.734C75.6008 122.534 75.9 122.635 76 122.435C76.4 121.735 75.4008 119.434 74.3008 118.634C71.7008 116.634 66.6992 115.935 63.6992 117.035C62.3992 117.535 62.6004 117.935 61.9004 113.935C61.0004 108.935 60.8004 107.635 60.9004 107.535C61.0004 107.535 61.4992 107.334 62.1992 107.234C65.1992 106.734 68 108.334 69 111.134C69.4 112.334 69.9 112.434 71 111.634C73.1 110.034 76.4996 110.035 79.0996 111.435C81.8996 112.935 83.4996 115.335 83.5996 118.435C83.6996 119.935 83.5996 120.434 83.0996 121.734C82.1996 124.134 82.3004 124.334 83.9004 125.234C85.7004 126.134 87.7992 127.835 88.6992 128.935C90.8992 131.535 92.3008 135.534 92.3008 138.734C92.3008 145.834 86.4992 153.233 79.6992 154.833C77.1992 155.433 72.8992 155.134 70.6992 154.333C70.2992 154.134 70.2008 154.034 70.3008 153.634C71.3008 150.334 71.3996 148.535 70.5996 148.535C70.0996 148.535 69.6992 149.334 69.1992 151.134C68.2992 154.534 66.8008 156.834 64.3007 159.234C61.5007 161.834 58.9996 163.333 55.5996 164.333C54.0996 164.833 53.3004 164.935 50.4004 165.035C48.7004 165.135 46.9007 165.035 46.3007 164.935C44.2007 164.535 41.4992 163.634 39.6992 162.734C36.3992 161.134 34.4996 159.235 32.0996 155.435C31.4996 154.535 30.8992 153.734 30.6992 153.734C30.2992 153.734 30.4996 155.135 31.0996 156.435C31.2996 157.135 31.5 157.634 31.5 157.634C31.1 157.834 29.9008 158.233 28.8008 158.333C26.0008 158.733 23.4996 157.934 21.5996 156.134C20.2996 154.934 19.5007 153.334 19.3007 151.634C19.1007 150.434 19.0992 150.435 19.6992 150.435C20.8992 150.435 22.3007 149.534 21.8007 149.034C21.7007 148.934 20.0992 148.834 18.1992 148.734C15.1992 148.633 14.4996 148.534 13.0996 148.034C7.79957 146.134 3.69997 141.534 1.99997 135.634C1.39997 133.334 1.09996 129.733 1.49996 127.333C2.49996 120.533 6.79958 114.833 12.5996 112.833C14.1996 112.333 14.5996 112.234 17.0996 112.234C18.5996 112.234 19.9996 112.134 20.0996 112.034C20.2996 111.934 20.7 111.334 21 110.634C22.2 108.234 24.4008 106.534 26.3008 106.534Z" fill="#00482F"/>
<path d="M62.1001 137.334C60.5001 135.734 59.0001 135.834 57.5001 137.734C55.6001 140.034 54.5001 141.134 53.0001 141.834C50.5001 143.134 48.2001 143.034 45.4001 141.734C43.7001 141.034 43.0001 140.834 42.0001 141.134C40.4001 141.634 39.4001 143.434 39.6001 145.434C39.9 148.934 43.3001 152.034 47.6001 152.834C50.4001 153.334 53.9001 152.734 56.5001 151.134C62.4001 147.634 65.2001 140.534 62.1001 137.334ZM61.7001 142.234C61.3001 144.234 60.3001 145.734 58.3001 147.734C56.4001 149.634 54.8001 150.534 52.6001 151.134C51.1001 151.534 48.4001 151.534 47.3001 151.134C44.5001 150.434 42.1001 148.334 41.5001 146.234C41.1001 144.834 41.2 143.934 41.8 143.134C42.4 142.334 43 142.234 44.4 142.834C46.1 143.634 48.7 144.234 49.9 144.234C51.7 144.234 54.3 143.334 56 141.934C56.4 141.534 57.3 140.534 58 139.634C59.2 137.934 59.8 137.534 60.5 137.834C61.6 138.234 62.1001 140.134 61.7001 142.234Z" fill="#00482F"/>
<path d="M57.2999 114.634C56.7999 111.534 55.2999 103.534 55.1999 103.234C54.9998 102.834 54.5999 102.734 50.6999 102.534C48.6999 102.434 45.3999 102.234 43.4999 102.134C38.2999 101.834 36.7999 101.734 36.4999 101.834C35.9999 102.034 36.1999 102.434 37.2999 103.134C38.4999 103.934 46.7999 110.034 52.0999 114.134C53.9999 115.534 55.7999 116.934 56.0999 117.134C56.7999 117.634 57.0999 117.634 57.3999 117.134C57.5999 116.934 57.5999 116.434 57.2999 114.634ZM56.0999 115.634C55.9998 115.634 53.4999 113.734 46.4999 108.434C44.5999 106.934 42.0999 105.234 40.9999 104.434C39.8999 103.634 38.9999 103.034 38.8999 102.934C38.7998 102.834 39.2999 102.934 47.3999 103.534C50.2999 103.734 52.7999 103.934 53.0999 103.934C54.0999 103.934 54.1999 104.234 55.0999 109.434C55.5999 112.134 55.9999 114.634 56.0999 115.034C56.0999 115.334 56.1999 115.634 56.0999 115.634Z" fill="#00482F"/>
<path d="M53.9 92.5341C53.2 86.4341 53.1 85.834 52.6 85.5341C52.3 85.4339 51.8 85.8342 49.4 88.134C45.6 91.9341 40.5 97.434 40.5 97.734C40.5 97.8342 40.7 98.0342 40.8 98.1341C40.9 98.2342 43.5 98.334 46.5 98.4342C49.5 98.4342 52.4 98.5343 52.9 98.5343C54.6 98.6345 54.6 98.8342 53.9 92.5341ZM52.7 97.3341C52.4 97.3341 49.9 97.2339 47.2 97.2339L42.3 97.1337L43.3 96.0338C43.9 95.5338 45.4 93.8338 46.8 92.4338C48.2 91.0338 50 89.1338 50.8 88.2338C51.9 87.0338 52.3 86.7338 52.3 87.0337C52.3 87.2337 52.5 89.5337 52.8 92.2338C53.1 94.9337 53.3 97.1337 53.3 97.2337C53.3 97.3339 53 97.3341 52.7 97.3341Z" fill="#00482F"/>
<path d="M48.8 80.934C47.1 80.934 44.4 80.8342 42.8 80.7341C41.2 80.6339 39.7 80.6339 39.6 80.6339C39.5 80.6339 38.6 83.5339 37.7 87.0339C36.8 90.5339 35.8 94.3339 35.4 95.4339C35 96.5339 34.8 97.6339 34.9 97.7339C34.9 97.9338 35.2 98.034 35.4 98.034C35.6 98.034 37.8 96.034 40.2 93.634C42.6 91.134 46 87.934 47.6 86.334C50.6 83.434 52.3 81.634 52.3 81.334C52.3 80.934 51.7 80.934 48.8 80.934ZM46.7 85.534C44.6 87.4341 41.5 90.434 39.7 92.134C37.6 94.234 36.6 95.034 36.7 94.734C36.9 94.234 37.3 92.734 39 86.2341C39.3 84.734 39.7 83.1341 39.8 82.5341L39.9 81.434L41.4 81.634C42.2 81.7341 44.6 81.8339 46.7 81.9341L50.5 82.0342L46.7 85.534Z" fill="#00482F"/>
<path d="M50.3001 75.834C49.5001 75.134 47.5001 73.334 45.9001 71.834C44.3001 70.334 42.8001 69.034 42.7001 69.034C42.4001 68.9339 42.3001 69.434 41.2001 73.734C40.3001 77.434 40.2001 77.8341 40.6001 77.934C40.8001 77.934 42.8001 78.0342 45.2001 78.0342C47.6001 78.0342 51.1001 78.2341 51.4001 78.1343C52.1001 77.7344 51.8001 77.1341 50.3001 75.834ZM45.5001 76.834C43.3001 76.834 41.5001 76.7339 41.5001 76.6341C41.5001 76.5339 41.6001 76.1341 41.7001 75.8341C41.8001 75.534 42.1001 74.1341 42.4001 72.8341L43.0001 70.4341L44.5001 71.9341C45.3001 72.7341 46.8001 74.2341 47.9001 75.2341C49.0001 76.2341 49.8001 76.9341 49.7001 76.9341C49.6001 76.9341 47.7001 76.834 45.5001 76.834Z" fill="#00482F"/>
<path d="M51.9999 73.134C51.9999 72.8339 51.7999 71.534 51.5999 70.234C51.0999 66.434 50.8999 65.134 50.5999 64.934C50.3 64.6339 44.4999 64.434 44.0999 64.6339C43.4999 65.0339 44.0999 65.8339 47.9999 69.8339C49.9999 71.9339 51.7999 73.7339 51.8999 73.634C51.9999 73.634 52.0999 73.4341 51.9999 73.134ZM50.1999 70.734C50.1999 70.6342 48.9999 69.4341 47.6999 68.034L45.2999 65.534L46.8999 65.6342C47.7999 65.6342 48.6999 65.7343 49.0999 65.7343H49.6999L50 68.2344C50.2 69.6343 50.2999 70.7343 50.2999 70.8343C50.1999 70.8343 50.1999 70.8342 50.1999 70.734Z" fill="#00482F"/>
<path d="M50.2 60.4341C50.2 60.134 49.9 58.534 49.7 56.934C48.9 50.734 48.7 49.834 48.4 49.434C48.1 49.0341 48.1 49.034 47.8 49.7341C47.5 50.4341 45 60.2341 45 60.7341C45 60.934 45.9 60.934 47.6 61.0342H50.3L50.2 60.4341ZM47.7 60.034C46.6 60.034 46.4 59.9339 46.5 59.6341C47.7 54.034 48 53.134 48.1 53.234C48.2 53.234 49 59.434 49 59.8341C49 59.9338 48.4 59.9339 47.7 60.034Z" fill="#00482F"/>
<path d="M79.2 94.134C78.9 93.9341 78.7 93.634 78.7 93.334C78.7 92.8341 79.6 92.034 80.1 92.034C80.5 92.034 81.1999 92.8341 81.1999 93.234C81.1999 93.734 80.5 94.434 80 94.434C79.9 94.5342 79.5 94.3339 79.2 94.134Z" fill="#00482F"/>
<path d="M59.2999 45.334C58.5999 45.4342 58.9999 46.234 59.0999 46.734C60.0999 50.434 61.0999 54.134 62.3999 57.734C62.4999 58.434 63.0999 58.334 63.5999 58.0341C65.5999 57.0341 67.5999 56.1341 69.4999 55.1341C69.8999 54.6341 68.9999 54.2341 68.7999 53.8341C65.7999 51.0341 62.7999 48.2341 59.6999 45.6341C59.5999 45.334 59.4999 45.334 59.2999 45.334Z" fill="#DDFA88"/>
<g opacity="0.5" style="mix-blend-mode:hard-light">
<path d="M62.4 57.834C62.1 57.5339 61.9 56.834 61.7 55.634C61.5 54.634 60.8 52.1341 60 50.034C58.7 46.334 58.4 44.734 58.8 44.434C59.2 44.2341 59.8 45.134 60.8 47.934C61.4 49.534 62.5 52.134 63.2 53.834C64.5 57.034 64.7 57.534 64.3 58.034C63.9 58.434 62.9 58.334 62.4 57.834Z" fill="#00482F"/>
</g>
<path d="M68.4 55.634C68.3 55.5339 67.7 54.934 67.2 54.234C66.7 53.534 65.3 51.934 64.2 50.634C61.5 47.634 61.2 46.934 62.5 47.234C62.9 47.3342 64.3 48.634 66.4 50.734C69.3 53.634 69.7 54.134 69.7 54.734C69.7 55.534 69 56.034 68.4 55.634Z" fill="white"/>
<path d="M68.3 52.034C63.3 47.334 58.3 43.034 58 43.134C57.8 43.134 57.6 43.4341 57.6 43.634C57.5 44.434 61 57.034 61.8 58.534C62 58.934 62.3 59.134 62.7 59.134C63.7 59.134 70.7 55.734 70.9 55.134C71.1 54.634 70.8 54.434 68.3 52.034ZM68.5 55.134C68 55.4341 66.5 56.134 65.3 56.734C64.1 57.334 63 57.834 62.9 57.734C62.6 57.734 59.9 48.834 59.3 46.034C59.2 45.434 59.2 45.434 59.5 45.534C60 45.8341 67 52.234 68.3 53.534L69.4 54.634L68.5 55.134Z" fill="#00482F"/>
<path d="M38.3998 40.334C34.6998 43.034 31.0998 45.934 27.4998 48.834C27.0998 49.534 28.0998 49.934 28.3998 50.434C29.5998 51.634 30.7998 52.934 32.0998 54.034C32.7998 54.1342 32.9998 53.134 33.2998 52.634C35.1998 48.734 37.1998 44.834 38.8998 40.934C39.0999 40.534 38.7998 40.234 38.3998 40.334Z" fill="#DDFA88"/>
<g opacity="0.5" style="mix-blend-mode:hard-light">
<path d="M31.7 54.434C31.4 54.2341 31.2 53.934 31.2 53.834C31.2 53.134 37.2 41.534 38.3 40.034C38.9 39.134 39.4 39.134 39.4 40.034C39.4 40.934 33.6 53.634 32.8 54.434C32.4 54.834 32.3 54.834 31.7 54.434Z" fill="#00482F"/>
</g>
<path d="M27.3998 50.234C27.1997 49.9339 26.9998 49.534 26.9998 49.334C26.9998 48.834 27.5998 48.234 28.0998 48.134C28.2998 48.134 29.3998 47.134 30.5998 46.034C33.5998 43.134 38.4998 39.534 38.8998 39.934C39.0998 40.134 38.6997 40.934 37.9998 41.734C37.1998 42.734 31.3998 48.134 29.5998 49.734C28.9998 50.234 28.3998 50.734 28.1998 50.734C27.9997 50.6339 27.5998 50.4339 27.3998 50.234Z" fill="white"/>
<path d="M35.5999 41.134C27.3999 47.2341 26.1999 48.334 26.0999 48.934C26.0999 49.434 26.3998 49.834 28.9999 52.434C30.9999 54.434 32.0999 55.434 32.2999 55.434C32.5998 55.434 32.9999 55.1339 33.2999 54.734C33.8999 54.034 38.7999 43.834 40.1999 40.534C41.7999 36.734 41.2999 36.834 35.5999 41.134ZM34.3999 49.934C33.3999 52.034 32.3999 53.734 32.3999 53.834C32.0999 53.834 27.7999 49.434 27.7999 49.1341C27.7999 49.0339 29.4999 47.534 31.5999 45.934C33.6999 44.234 36.1999 42.334 37.0999 41.634C37.9999 40.934 38.7999 40.434 38.7999 40.434C38.8999 40.5342 37.3999 43.834 34.3999 49.934Z" fill="#00482F"/>
<path d="M75.0001 30.134C73.4001 30.534 71.9001 31.034 70.3001 31.534C66.9001 32.534 63.5001 33.434 60.2001 34.534C59.7001 34.734 60.0001 35.434 60.5001 35.434C63.1001 36.134 65.8001 36.534 68.5001 37.134C68.8 37.2338 69.3001 37.4341 69.1001 37.834C68.9 39.634 68.3001 41.434 68.2001 43.334C68.3001 44.034 69.3 43.934 69.8001 44.234C74.5 45.634 79.2001 47.134 83.9001 48.534C84.5001 48.6338 85.3001 48.6338 85.5001 47.834C86.9001 43.734 88.1001 39.534 89.5001 35.334C89.6001 34.834 89.0001 34.734 88.6001 34.834C84.4001 35.1341 80.2001 35.734 76.0001 35.934C75.6001 35.934 74.9001 35.934 75.1001 35.434C75.1001 33.834 75.6001 32.334 75.6001 30.734C75.5 30.334 75.3001 30.134 75.0001 30.134Z" fill="#DDFA88"/>
<g opacity="0.5" style="mix-blend-mode:hard-light">
<path d="M81.0999 48.034C79.8999 47.634 77.4999 46.934 75.9 46.534C74.3 46.034 72.3 45.434 71.5 45.134C70.6 44.734 69.9 44.534 69.5 44.634C68.7 44.834 67.8 43.934 68 43.134C68.1 42.8339 68.2999 42.534 68.4 42.334C68.5 42.2339 68.8 41.134 68.9 39.934C69 38.734 68.7182 38.1935 68.8182 37.9935C68.9182 37.6934 69.3 37.034 68.6999 37.034C68.2999 37.034 66.2999 36.7339 64.1999 36.434C59.1999 35.634 58.1999 35.134 59.7999 34.634C60.4999 34.4341 60.6999 34.4341 69.0999 35.234C71.6999 35.5341 71.6999 35.434 71.1999 39.034C70.7999 41.934 70.7999 42.234 71.4 42.334C72.7 42.6341 83.3 44.934 83.8 45.134C84.0999 45.2342 84.8 45.4341 85.3 45.534C86.4 45.8341 86.7 46.334 86.2 47.334C85.4 49.034 84.6999 49.134 81.0999 48.034Z" fill="#00482F"/>
</g>
<path d="M77.1 36.734C75 36.4339 74.8 36.134 76.2 35.434C76.9 35.034 77.6 35.034 82.8 34.934C86 34.8338 88.7 34.8338 88.9 34.934C89.6 35.1339 89.6 36.5341 88.9 36.734C88.2 36.734 78.3 36.8342 77.1 36.734Z" fill="white"/>
<path d="M63.0999 33.834C62.5999 33.334 63.7999 32.434 65.9999 31.734C67.4999 31.234 74.2999 29.634 74.8999 29.634C75.3999 29.634 75.7999 30.334 75.5999 30.934C75.3999 31.534 74.5999 31.834 68.9999 32.934C63.6999 34.034 63.2999 34.134 63.0999 33.834Z" fill="white"/>
<path d="M84.4 34.134C81.9 34.4341 79 34.634 77.9 34.734L76 34.8342L76.2 33.9342C76.3 33.4342 76.5 32.2342 76.6 31.1342C77 28.3342 77 28.3342 73.7 29.4342C72.3 29.8342 68.1 31.1342 64.4 32.1342C60.8 33.1342 57.6 34.1342 57.5 34.2342C57.1 34.6342 57.2 35.4342 57.7 35.6342C58.5 35.9343 64.6 37.2342 66.5 37.5342C67.5 37.7341 68.3 37.8343 68.3 37.8343C68.3 37.9344 68 39.2343 67.7 40.9343C67.4 42.6343 67.1 44.0343 67.2 44.2343C67.3 44.3345 67.9 44.6343 68.5 44.7343C70.3 45.1343 78.2 47.4343 81.8 48.7343C83.6 49.3343 85.2 49.8343 85.3 49.8343C85.7 49.8343 86 48.9343 88.2 42.0343C89.6 37.7343 90.7 34.1343 90.7 34.0343C90.7 33.7342 89.1 33.7338 84.4 34.134ZM88.8 36.134C88.5 37.134 85.9 45.334 85.3 47.334C85 48.434 84.8 48.434 81.7 47.5339C77.2 46.134 68.8 43.534 68.6 43.534C68.3 43.534 68.3 43.334 68.9 40.434C69.2 39.0339 69.4 37.734 69.4 37.634C69.4 37.034 68.8 36.734 67.4 36.534C64.5 36.0339 59.6 34.934 59.9 34.834C60.1 34.7338 61.9 34.234 64 33.634C69.7 32.034 73.3 30.934 74.3 30.6339C75.3 30.234 75.3 30.0339 74.8 33.334C74.4 36.434 74.2 36.334 78.2 36.0339C79.8 35.9342 82.5 35.7339 84 35.534C85.6 35.334 87.4 35.2339 88 35.134L89.2 35.0338L88.8 36.134Z" fill="#00482F"/>
<path d="M80.7 1.43402C80 1.83401 79.6 2.63402 79.1 3.23402C76.8 6.13401 74.7 9.13401 72.2 11.934C72 12.134 71.6 12.634 71.3 12.2341C69.8 10.9341 68.8 9.23413 67.3 7.93412C66.7 7.63403 66.4 8.43411 66.2 8.83414C63.8 13.6341 61.4 18.5341 59.2 23.4341C58.9 23.8341 59.5 24.4341 59.9 24.0341C62.3 22.2341 64.5 20.2341 66.9 18.4341C67.2 18.2342 67.6 17.9341 67.8 18.334C68.8 19.934 69.2 21.834 70.1 23.434C70.6 23.834 71.1 23.1339 71.6 23.034C77 19.834 82.5 16.534 88 13.334C88.5 12.834 87.7 12.234 87.5 11.834C85.3 8.53396 83.2 5.13399 81.2 1.634C81 1.43406 80.9 1.43402 80.7 1.43402Z" fill="#DDFA88"/>
<g opacity="0.5" style="mix-blend-mode:hard-light">
<path d="M58.6001 24.334C58.6001 23.8341 59.4001 22.934 63.9001 18.834C67.9001 15.234 68.1001 15.034 69.0001 16.334C69.2001 16.734 69.7001 17.734 70.1001 18.734C70.5001 19.634 70.8001 20.534 70.9001 20.634C71.0001 20.7342 71.5001 20.4341 72.0001 20.034C72.5001 19.6341 74.7001 18.234 76.7001 16.834C78.8001 15.534 81.8001 13.434 83.4001 12.334C85.0001 11.234 86.5001 10.234 86.7001 10.334C86.9001 10.334 87.1001 10.534 87.1001 10.834C87.1001 11.0339 87.4001 11.434 87.6001 11.634C88.2001 12.134 88.3001 12.934 87.9001 13.534C87.4001 14.334 82.7001 16.834 83.2001 16.034C83.3001 15.8341 83.1001 15.9339 82.8001 16.1342C81.2001 17.1342 77.6001 19.3342 74.9001 20.9342C72.3001 22.4342 72.2001 23.0342 71.8001 23.2342C70.9001 23.6342 70.8001 23.8342 70.2001 23.8342C69.5001 23.8342 69.6001 23.734 69.4001 22.7342C69.2001 22.0342 68.0001 18.8342 67.8001 18.5342C67.8001 18.5342 66.9001 19.2342 65.8001 20.1342C63.8001 21.9342 61.2001 23.9342 60.1001 24.6342C59.1001 24.8341 58.6001 24.8341 58.6001 24.334Z" fill="#00482F"/>
</g>
<path d="M60.8001 20.434C60.5001 19.934 61.5001 17.434 63.7001 13.734C64.3001 12.734 65.0001 11.334 65.2001 10.634C65.6001 9.43403 66.3001 8.33403 66.7001 8.03402C67.1001 7.73392 67.8001 7.83409 68.1001 8.23396C68.6001 8.83396 68.5001 9.63391 67.8001 10.8339C65.5001 14.4339 62.5001 19.034 61.9001 19.734C61.3001 20.6339 61.0001 20.834 60.8001 20.434Z" fill="white"/>
<path d="M72 12.234C72 11.834 73.2 10.234 75.3 8.03401C76.5 6.83401 77.7 5.43399 77.9 4.93399C78.6 3.53402 80.4 1.53403 80.9 1.53403C81.7 1.53403 82.3 2.23403 82.3 3.33403C82.3 3.83402 81.9 4.33402 79.3 6.73402C75.8 9.93403 73.7 11.734 72.9 12.134C72.1 12.4341 72 12.434 72 12.234Z" fill="white"/>
<path d="M87.4 9.73403C86.4 8.23405 84.8 5.63405 83.8 4.03406C81.7 0.434062 81.2 -0.165946 80.7 0.0340291C80.5 0.134187 79 1.93404 77.4 4.03406C72.6 10.334 72 11.1341 71.8 11.2341C71.7 11.3342 71 10.5341 70.3 9.63403C69.6 8.73405 68.5 7.53404 68 7.03405C67.2 6.33404 67 6.13403 66.7 6.33404C66 6.73403 59.2 21.034 57.9 24.734C57.5 26.034 57.5 26.134 57.8 26.3341C58.2 26.6342 58.5 26.534 62.7 22.834C64.9 21.034 66.9 19.534 67 19.434C67.2 19.3339 67.6 20.1341 68.3 21.834C69.2 23.9341 69.4 24.3341 69.8 24.4341C70.3 24.4341 70.5 24.3339 76.3 20.8341C79.9 18.5341 81.9 17.434 88 14.034C88.8 13.6341 89.2 13.234 89.2 12.834C89.2 12.6341 88.4 11.2341 87.4 9.73403ZM86.8 13.6341C83.3 15.5341 73.7 21.334 70.8 23.134C70.6 23.334 70.3 23.4341 70.3 23.334C70.3 23.2338 69.9 22.2339 69.5 21.134C68.5 18.534 68 17.734 67.5 17.734C67.3 17.734 66.5 18.234 65.8 18.834C65 19.434 63.4 20.734 62.1 21.834C60.8 22.934 59.6 23.834 59.5 23.834C59.4 23.9341 59.5 23.634 59.7 23.034C60.6 21.0339 66.5 8.93399 66.8 8.43396L67.1001 7.93395L67.5001 8.33398C67.7001 8.53392 68.6001 9.53397 69.4001 10.534C70.2001 11.5339 71.1001 12.434 71.4001 12.534C72.1001 12.8341 72.5001 12.3341 77.1001 6.33398L80.8001 1.53397L82.3001 4.23395C83.1001 5.63396 84.7001 8.23399 85.8001 9.93398L87.8001 13.034L86.8 13.6341Z" fill="#00482F"/>
<path d="M48.6998 13.6341C47.2999 14.0341 45.6999 14.2341 44.2999 14.9341C43.8999 15.334 44.4999 16.0341 44.4999 16.5341C44.8999 17.6341 45.0999 18.834 45.7999 19.834C46.2999 20.234 46.5999 19.4341 46.7999 19.0341C47.5999 17.434 48.4999 15.934 49.0999 14.2341C49.1999 13.834 48.9998 13.5341 48.6998 13.6341Z" fill="#DDFA88"/>
<g opacity="0.5" style="mix-blend-mode:hard-light">
<path d="M45.4999 20.134C45.1999 19.634 44.3999 16.334 44.3999 15.434C44.3999 14.734 44.4999 14.434 44.6999 14.434C45.1999 14.434 45.6999 15.434 46.4999 17.734C47.0999 19.434 47.0999 19.834 46.8999 20.134C46.5999 20.534 45.7999 20.534 45.4999 20.134Z" fill="#00482F"/>
</g>
<path d="M45.8 19.834C45.7 19.6341 46.5 17.134 47.5 14.534C47.7999 13.634 48 13.534 48.5 13.434C49.2 13.3339 49.7 13.7341 49.7 14.334C49.7 14.934 48 18.234 47.2 19.234C46.5 20.034 46 20.234 45.8 19.834Z" fill="white"/>
<path d="M49.7999 12.634C48.6999 12.634 43.5999 13.934 43.2999 14.334C43.0999 14.6341 43.2999 15.434 44.0999 17.634C44.6999 19.234 45.1999 20.734 45.3999 21.034C45.5999 21.3341 45.7999 21.434 46.1999 21.3341C46.5999 21.3341 47.0999 20.6341 48.6999 17.4341C49.7999 15.2341 50.5999 13.4341 50.5999 13.1341C50.4999 12.7341 50.3999 12.634 49.7999 12.634ZM47.6999 16.734C46.7999 18.334 46.0999 19.634 46.0999 19.634C45.9999 19.634 45.6999 18.734 45.2999 17.534C44.8999 16.434 44.4999 15.334 44.4999 15.234C44.3999 15.1339 45.2999 14.834 46.4999 14.534C47.6999 14.2339 48.7999 14.034 48.8999 13.934C49.0999 13.8339 48.4999 15.134 47.6999 16.734Z" fill="#00482F"/>
</svg>
